<?xml version="1.0" encoding="UTF-8" standalone="no"?>
<svg
   xmlns:dc="http://purl.org/dc/elements/1.1/"
   xmlns:cc="http://creativecommons.org/ns#"
   xmlns:rdf="http://www.w3.org/1999/02/22-rdf-syntax-ns#"
   xmlns:svg="http://www.w3.org/2000/svg"
   xmlns="http://www.w3.org/2000/svg"
   xmlns:sodipodi="http://sodipodi.sourceforge.net/DTD/sodipodi-0.dtd"
   xmlns:inkscape="http://www.inkscape.org/namespaces/inkscape"
   version="1.1"
   viewBox="0.0 0.0 337.8503937007874 354.41207349081367"
   fill="none"
   stroke="none"
   stroke-linecap="square"
   stroke-miterlimit="10"
   id="svg2"
   inkscape:version="0.91 r13725"
   sodipodi:docname="Boitier commande 8E + 8S.inkscape.svg">
  <metadata
     id="metadata257">
    <rdf:RDF>
      <cc:Work
         rdf:about="">
        <dc:format>image/svg+xml</dc:format>
        <dc:type
           rdf:resource="http://purl.org/dc/dcmitype/StillImage" />
        <dc:title></dc:title>
      </cc:Work>
    </rdf:RDF>
  </metadata>
  <defs
     id="defs255" />
  <sodipodi:namedview
     pagecolor="#ffffff"
     bordercolor="#666666"
     borderopacity="1"
     objecttolerance="10"
     gridtolerance="10"
     guidetolerance="10"
     inkscape:pageopacity="0"
     inkscape:pageshadow="2"
     inkscape:window-width="1920"
     inkscape:window-height="1151"
     id="namedview253"
     showgrid="false"
     inkscape:zoom="1.8834257"
     inkscape:cx="149.11099"
     inkscape:cy="150.93862"
     inkscape:window-x="0"
     inkscape:window-y="25"
     inkscape:window-maximized="1"
     inkscape:current-layer="svg2" />
  <clipPath
     id="p.0">
    <path
       d="m0 0l337.8504 0l0 354.41208l-337.8504 0l0 -354.41208z"
       clip-rule="nonzero"
       id="path5" />
  </clipPath>
  <g
     clip-path="url(#p.0)"
     id="g7">
    <path
       fill="#000000"
       fill-opacity="0.0"
       d="m0 0l337.8504 0l0 354.41208l-337.8504 0z"
       fill-rule="nonzero"
       id="path9" />
    <path
       fill="#f3f3f3"
       d="m16.0 16.0l304.0 0l0 328.0l-304.0 0z"
       fill-rule="nonzero"
       id="path11" />
    <path
       stroke="#000000"
       stroke-width="2.0"
       stroke-linejoin="round"
       stroke-linecap="butt"
       d="m16.0 16.0l304.0 0l0 328.0l-304.0 0z"
       fill-rule="nonzero"
       id="path13" />
    <path
       fill="#000000"
       d="m74.53343 317.32623l5.4375 0q1.609375 0 2.40625 0.140625q0.796875 0.125 1.421875 0.546875q0.625 0.421875 1.03125 1.140625q0.421875 0.703125 0.421875 1.59375q0 0.953125 -0.515625 1.75q-0.5 0.796875 -1.390625 1.1875q1.25 0.375 1.90625 1.25q0.671875 0.859375 0.671875 2.046875q0 0.921875 -0.4375 1.796875q-0.421875 0.875 -1.171875 1.40625q-0.75 0.515625 -1.84375 0.640625q-0.6875 0.078125 -3.3125 0.09375l-4.625 0l0 -13.59375zm2.75 2.25l0 3.15625l1.796875 0q1.609375 0 2.0 -0.046875q0.703125 -0.09375 1.09375 -0.484375q0.40625 -0.40625 0.40625 -1.0625q0 -0.640625 -0.34375 -1.03125q-0.34375 -0.390625 -1.03125 -0.484375q-0.40625 -0.046875 -2.34375 -0.046875l-1.578125 0zm0 5.421875l0 3.625l2.546875 0q1.484375 0 1.875 -0.078125q0.609375 -0.109375 1.0 -0.53125q0.390625 -0.4375 0.390625 -1.171875q0 -0.609375 -0.296875 -1.03125q-0.296875 -0.421875 -0.859375 -0.609375q-0.5625 -0.203125 -2.4375 -0.203125l-2.21875 0zm10.097946 0.859375q0 -1.296875 0.640625 -2.515625q0.640625 -1.21875 1.8125 -1.859375q1.171875 -0.640625 2.609375 -0.640625q2.25 0 3.671875 1.453125q1.421875 1.453125 1.421875 3.671875q0 2.234375 -1.4375 3.703125q-1.4375 1.46875 -3.625 1.46875q-1.359375 0 -2.59375 -0.609375q-1.21875 -0.609375 -1.859375 -1.796875q-0.640625 -1.1875 -0.640625 -2.875zm2.671875 0.140625q0 1.46875 0.6875 2.25q0.703125 0.765625 1.71875 0.765625q1.015625 0 1.703125 -0.765625q0.703125 -0.78125 0.703125 -2.265625q0 -1.453125 -0.703125 -2.234375q-0.6875 -0.78125 -1.703125 -0.78125q-1.015625 0 -1.71875 0.78125q-0.6875 0.78125 -0.6875 2.25zm9.317856 4.921875l0 -9.859375l2.609375 0l0 9.859375l-2.609375 0zm-1.328125 -11.09375l1.9375 -2.734375l2.421875 0l1.921875 2.734375l-2.09375 0l-1.078125 -1.390625l-1.0 1.390625l-2.109375 0zm11.027054 1.234375l0 2.078125l-1.78125 0l0 3.984375q0 1.203125 0.046875 1.40625q0.0625 0.1875 0.234375 0.328125q0.1875 0.125 0.453125 0.125q0.359375 0 1.046875 -0.25l0.21875 2.015625q-0.90625 0.390625 -2.0625 0.390625q-0.703125 0 -1.265625 -0.234375q-0.5625 -0.234375 -0.828125 -0.609375q-0.265625 -0.375 -0.375 -1.015625q-0.078125 -0.453125 -0.078125 -1.84375l0 -4.296875l-1.203125 0l0 -2.078125l1.203125 0l0 -1.953125l2.609375 -1.515625l0 3.46875l1.78125 0zm1.697052 -1.328125l0 -2.40625l2.609375 0l0 2.40625l-2.609375 0zm0 11.1875l0 -9.859375l2.609375 0l0 9.859375l-2.609375 0zm10.886429 -3.140625l2.609375 0.4375q-0.5 1.4375 -1.59375 2.1875q-1.078125 0.734375 -2.703125 0.734375q-2.5625 0 -3.796875 -1.671875q-0.96875 -1.34375 -0.96875 -3.40625q0 -2.4375 1.265625 -3.828125q1.28125 -1.390625 3.25 -1.390625q2.1875 0 3.453125 1.453125q1.28125 1.453125 1.234375 4.453125l-6.53125 0q0.015625 1.15625 0.625 1.8125q0.609375 0.640625 1.5 0.640625q0.609375 0 1.03125 -0.328125q0.421875 -0.34375 0.625 -1.09375zm0.15625 -2.625q-0.03125 -1.140625 -0.59375 -1.71875q-0.546875 -0.59375 -1.34375 -0.59375q-0.859375 0 -1.40625 0.625q-0.5625 0.609375 -0.546875 1.6875l3.890625 0zm7.016342 5.765625l-2.609375 0l0 -9.859375l2.421875 0l0 1.40625q0.625 -0.984375 1.109375 -1.296875q0.5 -0.328125 1.140625 -0.328125q0.890625 0 1.71875 0.5l-0.8125 2.265625q-0.65625 -0.421875 -1.21875 -0.421875q-0.546875 0 -0.9375 0.296875q-0.375 0.296875 -0.59375 1.09375q-0.21875 0.78125 -0.21875 3.296875l0 3.046875zm18.990448 0l-2.421875 0l0 -1.453125q-0.609375 0.84375 -1.4375 1.265625q-0.8125 0.40625 -1.640625 0.40625q-1.703125 0 -2.921875 -1.359375q-1.203125 -1.375 -1.203125 -3.828125q0 -2.5 1.171875 -3.796875q1.1875 -1.3125 2.984375 -1.3125q1.65625 0 2.859375 1.375l0 -4.890625l2.609375 0l0 13.59375zm-6.96875 -5.140625q0 1.578125 0.4375 2.28125q0.640625 1.015625 1.765625 1.015625q0.90625 0 1.53125 -0.765625q0.625 -0.765625 0.625 -2.28125q0 -1.703125 -0.609375 -2.4375q-0.609375 -0.75 -1.5625 -0.75q-0.9375 0 -1.5625 0.734375q-0.625 0.734375 -0.625 2.203125zm15.020981 2.0l2.609375 0.4375q-0.5 1.4375 -1.59375 2.1875q-1.078125 0.734375 -2.703125 0.734375q-2.5625 0 -3.796875 -1.671875q-0.96875 -1.34375 -0.96875 -3.40625q0 -2.4375 1.265625 -3.828125q1.28125 -1.390625 3.25 -1.390625q2.1875 0 3.453125 1.453125q1.28125 1.453125 1.234375 4.453125l-6.53125 0q0.015625 1.15625 0.625 1.8125q0.609375 0.640625 1.5 0.640625q0.609375 0 1.03125 -0.328125q0.421875 -0.34375 0.625 -1.09375zm0.15625 -2.625q-0.03125 -1.140625 -0.59375 -1.71875q-0.546875 -0.59375 -1.34375 -0.59375q-0.859375 0 -1.40625 0.625q-0.5625 0.609375 -0.546875 1.6875l3.890625 0zm18.293396 -1.171875l-2.5625 0.46875q-0.140625 -0.78125 -0.59375 -1.171875q-0.453125 -0.390625 -1.1875 -0.390625q-0.984375 0 -1.5625 0.671875q-0.578125 0.671875 -0.578125 2.25q0 1.765625 0.578125 2.484375q0.59375 0.71875 1.59375 0.71875q0.75 0 1.21875 -0.421875q0.46875 -0.421875 0.671875 -1.453125l2.546875 0.4375q-0.390625 1.765625 -1.53125 2.671875q-1.125 0.890625 -3.03125 0.890625q-2.15625 0 -3.453125 -1.359375q-1.28125 -1.359375 -1.28125 -3.78125q0 -2.4375 1.296875 -3.796875q1.296875 -1.359375 3.484375 -1.359375q1.796875 0 2.859375 0.78125q1.0625 0.765625 1.53125 2.359375zm1.1882172 1.875q0 -1.296875 0.640625 -2.515625q0.640625 -1.21875 1.8125 -1.859375q1.171875 -0.640625 2.609375 -0.640625q2.25 0 3.671875 1.453125q1.421875 1.453125 1.421875 3.671875q0 2.234375 -1.4375 3.703125q-1.4375 1.46875 -3.625 1.46875q-1.359375 0 -2.59375 -0.609375q-1.21875 -0.609375 -1.859375 -1.796875q-0.640625 -1.1875 -0.640625 -2.875zm2.671875 0.140625q0 1.46875 0.6875 2.25q0.703125 0.765625 1.71875 0.765625q1.015625 0 1.703125 -0.765625q0.703125 -0.78125 0.703125 -2.265625q0 -1.453125 -0.703125 -2.234375q-0.6875 -0.78125 -1.703125 -0.78125q-1.015625 0 -1.71875 0.78125q-0.6875 0.78125 -0.6875 2.25zm9.130356 -4.9375l2.40625 0l0 1.359375q1.28125 -1.578125 3.0625 -1.578125q0.953125 0 1.640625 0.390625q0.703125 0.390625 1.140625 1.1875q0.65625 -0.796875 1.40625 -1.1875q0.75 -0.390625 1.609375 -0.390625q1.078125 0 1.828125 0.453125q0.75 0.4375 1.125 1.28125q0.265625 0.640625 0.265625 2.046875l0 6.296875l-2.609375 0l0 -5.625q0 -1.46875 -0.265625 -1.90625q-0.359375 -0.546875 -1.109375 -0.546875q-0.546875 0 -1.03125 0.34375q-0.484375 0.328125 -0.703125 0.96875q-0.203125 0.640625 -0.203125 2.03125l0 4.734375l-2.609375 0l0 -5.40625q0 -1.4375 -0.140625 -1.84375q-0.140625 -0.421875 -0.4375 -0.625q-0.28125 -0.203125 -0.78125 -0.203125q-0.609375 0 -1.09375 0.328125q-0.484375 0.3125 -0.6875 0.9375q-0.203125 0.609375 -0.203125 2.03125l0 4.78125l-2.609375 0l0 -9.859375zm16.588394 0l2.40625 0l0 1.359375q1.28125 -1.578125 3.0625 -1.578125q0.953125 0 1.640625 0.390625q0.703125 0.390625 1.140625 1.1875q0.65625 -0.796875 1.40625 -1.1875q0.75 -0.390625 1.609375 -0.390625q1.078125 0 1.828125 0.453125q0.75 0.4375 1.125 1.28125q0.265625 0.640625 0.265625 2.046875l0 6.296875l-2.609375 0l0 -5.625q0 -1.46875 -0.265625 -1.90625q-0.359375 -0.546875 -1.109375 -0.546875q-0.546875 0 -1.03125 0.34375q-0.484375 0.328125 -0.703125 0.96875q-0.203125 0.640625 -0.203125 2.03125l0 4.734375l-2.609375 0l0 -5.40625q0 -1.4375 -0.140625 -1.84375q-0.140625 -0.421875 -0.4375 -0.625q-0.28125 -0.203125 -0.78125 -0.203125q-0.609375 0 -1.09375 0.328125q-0.484375 0.3125 -0.6875 0.9375q-0.203125 0.609375 -0.203125 2.03125l0 4.78125l-2.609375 0l0 -9.859375zm18.72902 3.015625l-2.359375 -0.4375q0.390625 -1.421875 1.359375 -2.109375q0.984375 -0.6875 2.90625 -0.6875q1.734375 0 2.59375 0.421875q0.859375 0.40625 1.203125 1.046875q0.34375 0.625 0.34375 2.328125l-0.03125 3.046875q0 1.296875 0.125 1.921875q0.125 0.609375 0.46875 1.3125l-2.578125 0q-0.09375 -0.265625 -0.25 -0.765625q-0.0625 -0.234375 -0.09375 -0.3125q-0.65625 0.65625 -1.421875 0.984375q-0.765625 0.3125 -1.625 0.3125q-1.515625 0 -2.40625 -0.8125q-0.875 -0.828125 -0.875 -2.09375q0 -0.84375 0.390625 -1.484375q0.40625 -0.65625 1.125 -1.0q0.71875 -0.359375 2.078125 -0.625q1.828125 -0.328125 2.53125 -0.625l0 -0.265625q0 -0.75 -0.375 -1.0625q-0.359375 -0.328125 -1.390625 -0.328125q-0.703125 0 -1.09375 0.28125q-0.390625 0.265625 -0.625 0.953125zm3.484375 2.109375q-0.5 0.171875 -1.59375 0.40625q-1.078125 0.234375 -1.40625 0.453125q-0.515625 0.359375 -0.515625 0.921875q0 0.546875 0.40625 0.953125q0.40625 0.390625 1.046875 0.390625q0.703125 0 1.34375 -0.46875q0.46875 -0.359375 0.625 -0.859375q0.09375 -0.34375 0.09375 -1.28125l0 -0.515625zm13.906967 4.734375l-2.609375 0l0 -5.03125q0 -1.59375 -0.171875 -2.0625q-0.15625 -0.46875 -0.53125 -0.71875q-0.375 -0.265625 -0.90625 -0.265625q-0.6875 0 -1.234375 0.375q-0.53125 0.359375 -0.734375 0.984375q-0.1875 0.609375 -0.1875 2.25l0 4.46875l-2.609375 0l0 -9.859375l2.421875 0l0 1.453125q1.296875 -1.671875 3.25 -1.671875q0.859375 0 1.578125 0.3125q0.71875 0.3125 1.078125 0.796875q0.359375 0.484375 0.5 1.09375q0.15625 0.609375 0.15625 1.75l0 6.125zm11.474106 0l-2.421875 0l0 -1.453125q-0.609375 0.84375 -1.4375 1.265625q-0.8125 0.40625 -1.640625 0.40625q-1.703125 0 -2.921875 -1.359375q-1.203125 -1.375 -1.203125 -3.828125q0 -2.5 1.171875 -3.796875q1.1875 -1.3125 2.984375 -1.3125q1.65625 0 2.859375 1.375l0 -4.890625l2.609375 0l0 13.59375zm-6.96875 -5.140625q0 1.578125 0.4375 2.28125q0.640625 1.015625 1.765625 1.015625q0.90625 0 1.53125 -0.765625q0.625 -0.765625 0.625 -2.28125q0 -1.703125 -0.609375 -2.4375q-0.609375 -0.75 -1.5625 -0.75q-0.9375 0 -1.5625 0.734375q-0.625 0.734375 -0.625 2.203125zm15.020981 2.0l2.609375 0.4375q-0.5 1.4375 -1.59375 2.1875q-1.078125 0.734375 -2.703125 0.734375q-2.5625 0 -3.796875 -1.671875q-0.96875 -1.34375 -0.96875 -3.40625q0 -2.4375 1.265625 -3.828125q1.28125 -1.390625 3.25 -1.390625q2.1875 0 3.453125 1.453125q1.28125 1.453125 1.234375 4.453125l-6.53125 0q0.015625 1.15625 0.625 1.8125q0.609375 0.640625 1.5 0.640625q0.609375 0 1.03125 -0.328125q0.421875 -0.34375 0.625 -1.09375zm0.15625 -2.625q-0.03125 -1.140625 -0.59375 -1.71875q-0.546875 -0.59375 -1.34375 -0.59375q-0.859375 0 -1.40625 0.625q-0.5625 0.609375 -0.546875 1.6875l3.890625 0z"
       fill-rule="nonzero"
       id="path15" />
    <path
       fill="#ffffff"
       d="m8.0 64.0l0 0c0 -4.4182777 3.5817223 -8.0 8.0 -8.0l0 0c2.1217327 0 4.156563 0.84285355 5.6568546 2.3431473c1.5002899 1.5002899 2.3431454 3.535122 2.3431454 5.6568527l0 0c0 4.4182816 -3.5817223 8.0 -8.0 8.0l0 0c-4.4182777 0 -8.0 -3.5817184 -8.0 -8.0z"
       fill-rule="nonzero"
       id="path17" />
    <path
       stroke="#000000"
       stroke-width="2.0"
       stroke-linejoin="round"
       stroke-linecap="butt"
       d="m8.0 64.0l0 0c0 -4.4182777 3.5817223 -8.0 8.0 -8.0l0 0c2.1217327 0 4.156563 0.84285355 5.6568546 2.3431473c1.5002899 1.5002899 2.3431454 3.535122 2.3431454 5.6568527l0 0c0 4.4182816 -3.5817223 8.0 -8.0 8.0l0 0c-4.4182777 0 -8.0 -3.5817184 -8.0 -8.0z"
       fill-rule="nonzero"
       id="path19" />
    <path
       fill="#ffffff"
       d="m8.0 96.0l0 0c0 -4.4182816 3.5817223 -8.0 8.0 -8.0l0 0c2.1217327 0 4.156563 0.84285736 5.6568546 2.3431473c1.5002899 1.5002899 2.3431454 3.535118 2.3431454 5.6568527l0 0c0 4.4182816 -3.5817223 8.0 -8.0 8.0l0 0c-4.4182777 0 -8.0 -3.5817184 -8.0 -8.0z"
       fill-rule="nonzero"
       id="path21" />
    <path
       stroke="#000000"
       stroke-width="2.0"
       stroke-linejoin="round"
       stroke-linecap="butt"
       d="m8.0 96.0l0 0c0 -4.4182816 3.5817223 -8.0 8.0 -8.0l0 0c2.1217327 0 4.156563 0.84285736 5.6568546 2.3431473c1.5002899 1.5002899 2.3431454 3.535118 2.3431454 5.6568527l0 0c0 4.4182816 -3.5817223 8.0 -8.0 8.0l0 0c-4.4182777 0 -8.0 -3.5817184 -8.0 -8.0z"
       fill-rule="nonzero"
       id="path23" />
    <path
       fill="#000000"
       fill-opacity="0.0"
       d="m24.0 48.0l48.0 0l0 32.0l-48.0 0z"
       fill-rule="nonzero"
       id="path25" />
    <path
       fill="#000000"
       d="m34.5 70.92l0 -13.59375l9.84375 0l0 1.59375l-8.046875 0l0 4.171875l7.53125 0l0 1.59375l-7.53125 0l0 4.625l8.359375 0l0 1.609375l-10.15625 0zm11.724823 -6.703125q0 -2.421875 0.5 -3.890625q0.5 -1.46875 1.46875 -2.265625q0.984375 -0.796875 2.46875 -0.796875q1.09375 0 1.921875 0.4375q0.828125 0.4375 1.359375 1.28125q0.546875 0.828125 0.84375 2.015625q0.3125 1.1875 0.3125 3.21875q0 2.390625 -0.5 3.859375q-0.484375 1.46875 -1.46875 2.28125q-0.96875 0.796875 -2.46875 0.796875q-1.96875 0 -3.078125 -1.40625q-1.359375 -1.703125 -1.359375 -5.53125zm1.71875 0q0 3.34375 0.78125 4.453125q0.796875 1.109375 1.9375 1.109375q1.15625 0 1.9375 -1.109375q0.78125 -1.125 0.78125 -4.453125q0 -3.359375 -0.78125 -4.46875q-0.78125 -1.109375 -1.953125 -1.109375q-1.15625 0 -1.828125 0.984375q-0.875 1.234375 -0.875 4.59375z"
       fill-rule="nonzero"
       id="path27" />
    <path
       fill="#ffffff"
       d="m8.0 128.0l0 0c0 -4.4182816 3.5817223 -8.0 8.0 -8.0l0 0c2.1217327 0 4.156563 0.84285736 5.6568546 2.3431473c1.5002899 1.5002899 2.3431454 3.535118 2.3431454 5.6568527l0 0c0 4.418274 -3.5817223 8.0 -8.0 8.0l0 0c-4.4182777 0 -8.0 -3.581726 -8.0 -8.0z"
       fill-rule="nonzero"
       id="path29" />
    <path
       stroke="#000000"
       stroke-width="2.0"
       stroke-linejoin="round"
       stroke-linecap="butt"
       d="m8.0 128.0l0 0c0 -4.4182816 3.5817223 -8.0 8.0 -8.0l0 0c2.1217327 0 4.156563 0.84285736 5.6568546 2.3431473c1.5002899 1.5002899 2.3431454 3.535118 2.3431454 5.6568527l0 0c0 4.418274 -3.5817223 8.0 -8.0 8.0l0 0c-4.4182777 0 -8.0 -3.581726 -8.0 -8.0z"
       fill-rule="nonzero"
       id="path31" />
    <path
       fill="#ffffff"
       d="m8.0 160.0l0 0c0 -4.418274 3.5817223 -8.0 8.0 -8.0l0 0c2.1217327 0 4.156563 0.84284973 5.6568546 2.3431396c1.5002899 1.5002899 2.3431454 3.5351257 2.3431454 5.6568604l0 0c0 4.418274 -3.5817223 8.0 -8.0 8.0l0 0c-4.4182777 0 -8.0 -3.581726 -8.0 -8.0z"
       fill-rule="nonzero"
       id="path33" />
    <path
       stroke="#000000"
       stroke-width="2.0"
       stroke-linejoin="round"
       stroke-linecap="butt"
       d="m8.0 160.0l0 0c0 -4.418274 3.5817223 -8.0 8.0 -8.0l0 0c2.1217327 0 4.156563 0.84284973 5.6568546 2.3431396c1.5002899 1.5002899 2.3431454 3.5351257 2.3431454 5.6568604l0 0c0 4.418274 -3.5817223 8.0 -8.0 8.0l0 0c-4.4182777 0 -8.0 -3.581726 -8.0 -8.0z"
       fill-rule="nonzero"
       id="path35" />
    <path
       fill="#ffffff"
       d="m8.0 192.0l0 0c0 -4.418274 3.5817223 -8.0 8.0 -8.0l0 0c2.1217327 0 4.156563 0.84284973 5.6568546 2.3431396c1.5002899 1.5002899 2.3431454 3.5351257 2.3431454 5.6568604l0 0c0 4.418274 -3.5817223 8.0 -8.0 8.0l0 0c-4.4182777 0 -8.0 -3.581726 -8.0 -8.0z"
       fill-rule="nonzero"
       id="path37" />
    <path
       stroke="#000000"
       stroke-width="2.0"
       stroke-linejoin="round"
       stroke-linecap="butt"
       d="m8.0 192.0l0 0c0 -4.418274 3.5817223 -8.0 8.0 -8.0l0 0c2.1217327 0 4.156563 0.84284973 5.6568546 2.3431396c1.5002899 1.5002899 2.3431454 3.5351257 2.3431454 5.6568604l0 0c0 4.418274 -3.5817223 8.0 -8.0 8.0l0 0c-4.4182777 0 -8.0 -3.581726 -8.0 -8.0z"
       fill-rule="nonzero"
       id="path39" />
    <path
       fill="#ffffff"
       d="m8.0 224.0l0 0c0 -4.418274 3.5817223 -8.0 8.0 -8.0l0 0c2.1217327 0 4.156563 0.84284973 5.6568546 2.3431396c1.5002899 1.5002899 2.3431454 3.5351257 2.3431454 5.6568604l0 0c0 4.418274 -3.5817223 8.0 -8.0 8.0l0 0c-4.4182777 0 -8.0 -3.581726 -8.0 -8.0z"
       fill-rule="nonzero"
       id="path41" />
    <path
       stroke="#000000"
       stroke-width="2.0"
       stroke-linejoin="round"
       stroke-linecap="butt"
       d="m8.0 224.0l0 0c0 -4.418274 3.5817223 -8.0 8.0 -8.0l0 0c2.1217327 0 4.156563 0.84284973 5.6568546 2.3431396c1.5002899 1.5002899 2.3431454 3.5351257 2.3431454 5.6568604l0 0c0 4.418274 -3.5817223 8.0 -8.0 8.0l0 0c-4.4182777 0 -8.0 -3.581726 -8.0 -8.0z"
       fill-rule="nonzero"
       id="path43" />
    <path
       fill="#ffffff"
       d="m8.0 256.0l0 0c0 -4.418274 3.5817223 -8.0 8.0 -8.0l0 0c2.1217327 0 4.156563 0.84284973 5.6568546 2.3431396c1.5002899 1.5002899 2.3431454 3.5351257 2.3431454 5.6568604l0 0c0 4.418274 -3.5817223 8.0 -8.0 8.0l0 0c-4.4182777 0 -8.0 -3.581726 -8.0 -8.0z"
       fill-rule="nonzero"
       id="path45" />
    <path
       stroke="#000000"
       stroke-width="2.0"
       stroke-linejoin="round"
       stroke-linecap="butt"
       d="m8.0 256.0l0 0c0 -4.418274 3.5817223 -8.0 8.0 -8.0l0 0c2.1217327 0 4.156563 0.84284973 5.6568546 2.3431396c1.5002899 1.5002899 2.3431454 3.5351257 2.3431454 5.6568604l0 0c0 4.418274 -3.5817223 8.0 -8.0 8.0l0 0c-4.4182777 0 -8.0 -3.581726 -8.0 -8.0z"
       fill-rule="nonzero"
       id="path47" />
    <path
       fill="#ffffff"
       d="m8.0 288.0l0 0c0 -4.418274 3.5817223 -8.0 8.0 -8.0l0 0c2.1217327 0 4.156563 0.842865 5.6568546 2.3431396c1.5002899 1.5003052 2.3431454 3.5351257 2.3431454 5.6568604l0 0c0 4.418274 -3.5817223 8.0 -8.0 8.0l0 0c-4.4182777 0 -8.0 -3.581726 -8.0 -8.0z"
       fill-rule="nonzero"
       id="path49" />
    <path
       stroke="#000000"
       stroke-width="2.0"
       stroke-linejoin="round"
       stroke-linecap="butt"
       d="m8.0 288.0l0 0c0 -4.418274 3.5817223 -8.0 8.0 -8.0l0 0c2.1217327 0 4.156563 0.842865 5.6568546 2.3431396c1.5002899 1.5003052 2.3431454 3.5351257 2.3431454 5.6568604l0 0c0 4.418274 -3.5817223 8.0 -8.0 8.0l0 0c-4.4182777 0 -8.0 -3.581726 -8.0 -8.0z"
       fill-rule="nonzero"
       id="path51" />
    <path
       fill="#000000"
       fill-opacity="0.0"
       d="m16.0 16.0l88.0 0l0 32.0l-88.0 0z"
       fill-rule="nonzero"
       id="path53" />
    <path
       fill="#000000"
       d="m26.5 38.92l0 -13.59375l9.84375 0l0 1.59375l-8.046875 0l0 4.171875l7.53125 0l0 1.59375l-7.53125 0l0 4.625l8.359375 0l0 1.609375l-10.15625 0zm12.193573 0l0 -9.859375l1.5 0l0 1.40625q1.09375 -1.625 3.140625 -1.625q0.890625 0 1.640625 0.328125q0.75 0.3125 1.109375 0.84375q0.375 0.515625 0.53125 1.21875q0.09375 0.46875 0.09375 1.625l0 6.0625l-1.671875 0l0 -6.0q0 -1.015625 -0.203125 -1.515625q-0.1875 -0.515625 -0.6875 -0.8125q-0.5 -0.296875 -1.171875 -0.296875q-1.0625 0 -1.84375 0.671875q-0.765625 0.671875 -0.765625 2.578125l0 5.375l-1.671875 0zm14.031967 -1.5l0.234375 1.484375q-0.703125 0.140625 -1.265625 0.140625q-0.90625 0 -1.40625 -0.28125q-0.5 -0.296875 -0.703125 -0.75q-0.203125 -0.46875 -0.203125 -1.984375l0 -5.65625l-1.234375 0l0 -1.3125l1.234375 0l0 -2.4375l1.65625 -1.0l0 3.4375l1.6875 0l0 1.3125l-1.6875 0l0 5.75q0 0.71875 0.078125 0.921875q0.09375 0.203125 0.296875 0.328125q0.203125 0.125 0.578125 0.125q0.265625 0 0.734375 -0.078125zm1.5114288 1.5l0 -9.859375l1.5 0l0 1.5q0.578125 -1.046875 1.0625 -1.375q0.484375 -0.34375 1.078125 -0.34375q0.84375 0 1.71875 0.546875l-0.578125 1.546875q-0.609375 -0.359375 -1.234375 -0.359375q-0.546875 0 -0.984375 0.328125q-0.421875 0.328125 -0.609375 0.90625q-0.28125 0.890625 -0.28125 1.953125l0 5.15625l-1.671875 0zm12.978302 -3.171875l1.71875 0.21875q-0.40625 1.5 -1.515625 2.34375q-1.09375 0.828125 -2.8125 0.828125q-2.15625 0 -3.421875 -1.328125q-1.265625 -1.328125 -1.265625 -3.734375q0 -2.484375 1.265625 -3.859375q1.28125 -1.375 3.328125 -1.375q1.984375 0 3.234375 1.34375q1.25 1.34375 1.25 3.796875q0 0.140625 -0.015625 0.4375l-7.34375 0q0.09375 1.625 0.921875 2.484375q0.828125 0.859375 2.0625 0.859375q0.90625 0 1.546875 -0.46875q0.65625 -0.484375 1.046875 -1.546875zm-5.484375 -2.703125l5.5 0q-0.109375 -1.234375 -0.625 -1.859375q-0.796875 -0.96875 -2.078125 -0.96875q-1.140625 0 -1.9375 0.78125q-0.78125 0.765625 -0.859375 2.046875zm1.546875 -5.203125l1.234375 -2.59375l2.1875 0l-2.046875 2.59375l-1.375 0zm14.313217 7.90625l1.71875 0.21875q-0.40625 1.5 -1.515625 2.34375q-1.09375 0.828125 -2.8125 0.828125q-2.15625 0 -3.421875 -1.328125q-1.265625 -1.328125 -1.265625 -3.734375q0 -2.484375 1.265625 -3.859375q1.28125 -1.375 3.328125 -1.375q1.984375 0 3.234375 1.34375q1.25 1.34375 1.25 3.796875q0 0.140625 -0.015625 0.4375l-7.34375 0q0.09375 1.625 0.921875 2.484375q0.828125 0.859375 2.0625 0.859375q0.90625 0 1.546875 -0.46875q0.65625 -0.484375 1.046875 -1.546875zm-5.484375 -2.703125l5.5 0q-0.109375 -1.234375 -0.625 -1.859375q-0.796875 -0.96875 -2.078125 -0.96875q-1.140625 0 -1.9375 0.78125q-0.78125 0.765625 -0.859375 2.046875zm8.438217 2.9375l1.65625 -0.265625q0.140625 1.0 0.765625 1.53125q0.640625 0.515625 1.78125 0.515625q1.15625 0 1.703125 -0.46875q0.5625 -0.46875 0.5625 -1.09375q0 -0.5625 -0.484375 -0.890625q-0.34375 -0.21875 -1.703125 -0.5625q-1.84375 -0.46875 -2.5625 -0.796875q-0.703125 -0.34375 -1.078125 -0.9375q-0.359375 -0.609375 -0.359375 -1.328125q0 -0.65625 0.296875 -1.21875q0.3125 -0.5625 0.828125 -0.9375q0.390625 -0.28125 1.0625 -0.484375q0.671875 -0.203125 1.4375 -0.203125q1.171875 0 2.046875 0.34375q0.875 0.328125 1.28125 0.90625q0.421875 0.5625 0.578125 1.515625l-1.625 0.21875q-0.109375 -0.75 -0.65625 -1.171875q-0.53125 -0.4375 -1.5 -0.4375q-1.15625 0 -1.640625 0.390625q-0.484375 0.375 -0.484375 0.875q0 0.328125 0.203125 0.59375q0.203125 0.265625 0.640625 0.4375q0.25 0.09375 1.46875 0.4375q1.765625 0.46875 2.46875 0.765625q0.703125 0.296875 1.09375 0.875q0.40625 0.578125 0.40625 1.4375q0 0.828125 -0.484375 1.578125q-0.484375 0.734375 -1.40625 1.140625q-0.921875 0.390625 -2.078125 0.390625q-1.921875 0 -2.9375 -0.796875q-1.0 -0.796875 -1.28125 -2.359375z"
       fill-rule="nonzero"
       id="path55" />
    <path
       fill="#ffffff"
       d="m312.0 64.0l0 0c0 -4.4182777 3.581726 -8.0 8.0 -8.0l0 0c2.1217346 0 4.156555 0.84285355 5.6568604 2.3431473c1.5002747 1.5002899 2.3431396 3.535122 2.3431396 5.6568527l0 0c0 4.4182816 -3.581726 8.0 -8.0 8.0l0 0c-4.418274 0 -8.0 -3.5817184 -8.0 -8.0z"
       fill-rule="nonzero"
       id="path57" />
    <path
       stroke="#000000"
       stroke-width="2.0"
       stroke-linejoin="round"
       stroke-linecap="butt"
       d="m312.0 64.0l0 0c0 -4.4182777 3.581726 -8.0 8.0 -8.0l0 0c2.1217346 0 4.156555 0.84285355 5.6568604 2.3431473c1.5002747 1.5002899 2.3431396 3.535122 2.3431396 5.6568527l0 0c0 4.4182816 -3.581726 8.0 -8.0 8.0l0 0c-4.418274 0 -8.0 -3.5817184 -8.0 -8.0z"
       fill-rule="nonzero"
       id="path59" />
    <path
       fill="#000000"
       fill-opacity="0.0"
       d="m264.0 48.0l48.0 0l0 32.0l-48.0 0z"
       fill-rule="nonzero"
       id="path61" />
    <path
       fill="#000000"
       d="m281.0401 66.545l1.6875 -0.140625q0.125 1.015625 0.5625 1.671875q0.4375 0.65625 1.359375 1.0625q0.9375 0.40625 2.09375 0.40625q1.03125 0 1.8125 -0.3125q0.796875 -0.3125 1.1875 -0.84375q0.390625 -0.53125 0.390625 -1.15625q0 -0.640625 -0.375 -1.109375q-0.375 -0.484375 -1.234375 -0.8125q-0.546875 -0.21875 -2.421875 -0.65625q-1.875 -0.453125 -2.625 -0.859375q-0.96875 -0.515625 -1.453125 -1.265625q-0.46875 -0.75 -0.46875 -1.6875q0 -1.03125 0.578125 -1.921875q0.59375 -0.90625 1.703125 -1.359375q1.125 -0.46875 2.5 -0.46875q1.515625 0 2.671875 0.484375q1.15625 0.484375 1.765625 1.4375q0.625 0.9375 0.671875 2.140625l-1.71875 0.125q-0.140625 -1.28125 -0.953125 -1.9375q-0.796875 -0.671875 -2.359375 -0.671875q-1.625 0 -2.375 0.609375q-0.75 0.59375 -0.75 1.4375q0 0.734375 0.53125 1.203125q0.515625 0.46875 2.703125 0.96875q2.203125 0.5 3.015625 0.875q1.1875 0.546875 1.75 1.390625q0.578125 0.828125 0.578125 1.921875q0 1.09375 -0.625 2.0625q-0.625 0.953125 -1.796875 1.484375q-1.15625 0.53125 -2.609375 0.53125q-1.84375 0 -3.09375 -0.53125q-1.25 -0.546875 -1.96875 -1.625q-0.703125 -1.078125 -0.734375 -2.453125zm12.3654175 -2.328125q0 -2.421875 0.5 -3.890625q0.5 -1.46875 1.46875 -2.265625q0.984375 -0.796875 2.46875 -0.796875q1.09375 0 1.921875 0.4375q0.828125 0.4375 1.359375 1.28125q0.546875 0.828125 0.84375 2.015625q0.3125 1.1875 0.3125 3.21875q0 2.390625 -0.5 3.859375q-0.484375 1.46875 -1.46875 2.28125q-0.96875 0.796875 -2.46875 0.796875q-1.96875 0 -3.078125 -1.40625q-1.359375 -1.703125 -1.359375 -5.53125zm1.71875 0q0 3.34375 0.78125 4.453125q0.796875 1.109375 1.9375 1.109375q1.15625 0 1.9375 -1.109375q0.78125 -1.125 0.78125 -4.453125q0 -3.359375 -0.78125 -4.46875q-0.78125 -1.109375 -1.953125 -1.109375q-1.15625 0 -1.828125 0.984375q-0.875 1.234375 -0.875 4.59375z"
       fill-rule="nonzero"
       id="path63" />
    <path
       fill="#ffffff"
       d="m312.0 96.0l0 0c0 -4.4182816 3.581726 -8.0 8.0 -8.0l0 0c2.1217346 0 4.156555 0.84285736 5.6568604 2.3431473c1.5002747 1.5002899 2.3431396 3.535118 2.3431396 5.6568527l0 0c0 4.4182816 -3.581726 8.0 -8.0 8.0l0 0c-4.418274 0 -8.0 -3.5817184 -8.0 -8.0z"
       fill-rule="nonzero"
       id="path65" />
    <path
       stroke="#000000"
       stroke-width="2.0"
       stroke-linejoin="round"
       stroke-linecap="butt"
       d="m312.0 96.0l0 0c0 -4.4182816 3.581726 -8.0 8.0 -8.0l0 0c2.1217346 0 4.156555 0.84285736 5.6568604 2.3431473c1.5002747 1.5002899 2.3431396 3.535118 2.3431396 5.6568527l0 0c0 4.4182816 -3.581726 8.0 -8.0 8.0l0 0c-4.418274 0 -8.0 -3.5817184 -8.0 -8.0z"
       fill-rule="nonzero"
       id="path67" />
    <path
       fill="#000000"
       fill-opacity="0.0"
       d="m264.0 80.0l48.0 0l0 32.0l-48.0 0z"
       fill-rule="nonzero"
       id="path69" />
    <path
       fill="#000000"
       d="m281.0401 98.545l1.6875 -0.140625q0.125 1.015625 0.5625 1.671875q0.4375 0.65625 1.359375 1.0625q0.9375 0.40625 2.09375 0.40625q1.03125 0 1.8125 -0.3125q0.796875 -0.3125 1.1875 -0.84375q0.390625 -0.53125 0.390625 -1.15625q0 -0.640625 -0.375 -1.109375q-0.375 -0.484375 -1.234375 -0.8125q-0.546875 -0.21875 -2.421875 -0.65625q-1.875 -0.453125 -2.625 -0.859375q-0.96875 -0.515625 -1.453125 -1.265625q-0.46875 -0.75 -0.46875 -1.6875q0 -1.03125 0.578125 -1.921875q0.59375 -0.90625 1.703125 -1.359375q1.125 -0.46875 2.5 -0.46875q1.515625 0 2.671875 0.484375q1.15625 0.484375 1.765625 1.4375q0.625 0.9375 0.671875 2.140625l-1.71875 0.125q-0.140625 -1.28125 -0.953125 -1.9375q-0.796875 -0.671875 -2.359375 -0.671875q-1.625 0 -2.375 0.609375q-0.75 0.59375 -0.75 1.4375q0 0.734375 0.53125 1.203125q0.515625 0.46875 2.703125 0.96875q2.203125 0.5 3.015625 0.875q1.1875 0.546875 1.75 1.390625q0.578125 0.828125 0.578125 1.921875q0 1.09375 -0.625 2.0625q-0.625 0.953125 -1.796875 1.484375q-1.15625 0.53125 -2.609375 0.53125q-1.84375 0 -3.09375 -0.53125q-1.25 -0.546875 -1.96875 -1.625q-0.703125 -1.078125 -0.734375 -2.453125zm18.662292 4.375l-1.671875 0l0 -10.640625q-0.59375 0.578125 -1.578125 1.15625q-0.984375 0.5625 -1.765625 0.859375l0 -1.625q1.40625 -0.65625 2.453125 -1.59375q1.046875 -0.9375 1.484375 -1.8125l1.078125 0l0 13.65625z"
       fill-rule="nonzero"
       id="path71" />
    <path
       fill="#ffffff"
       d="m312.0 128.0l0 0c0 -4.4182816 3.581726 -8.0 8.0 -8.0l0 0c2.1217346 0 4.156555 0.84285736 5.6568604 2.3431473c1.5002747 1.5002899 2.3431396 3.535118 2.3431396 5.6568527l0 0c0 4.418274 -3.581726 8.0 -8.0 8.0l0 0c-4.418274 0 -8.0 -3.581726 -8.0 -8.0z"
       fill-rule="nonzero"
       id="path73" />
    <path
       stroke="#000000"
       stroke-width="2.0"
       stroke-linejoin="round"
       stroke-linecap="butt"
       d="m312.0 128.0l0 0c0 -4.4182816 3.581726 -8.0 8.0 -8.0l0 0c2.1217346 0 4.156555 0.84285736 5.6568604 2.3431473c1.5002747 1.5002899 2.3431396 3.535118 2.3431396 5.6568527l0 0c0 4.418274 -3.581726 8.0 -8.0 8.0l0 0c-4.418274 0 -8.0 -3.581726 -8.0 -8.0z"
       fill-rule="nonzero"
       id="path75" />
    <path
       fill="#000000"
       fill-opacity="0.0"
       d="m264.0 112.0l48.0 0l0 32.0l-48.0 0z"
       fill-rule="nonzero"
       id="path77" />
    <path
       fill="#000000"
       d="m281.0401 130.545l1.6875 -0.140625q0.125 1.015625 0.5625 1.671875q0.4375 0.65625 1.359375 1.0625q0.9375 0.40625 2.09375 0.40625q1.03125 0 1.8125 -0.3125q0.796875 -0.3125 1.1875 -0.84375q0.390625 -0.53125 0.390625 -1.15625q0 -0.640625 -0.375 -1.109375q-0.375 -0.484375 -1.234375 -0.8125q-0.546875 -0.21875 -2.421875 -0.65625q-1.875 -0.453125 -2.625 -0.859375q-0.96875 -0.515625 -1.453125 -1.265625q-0.46875 -0.75 -0.46875 -1.6875q0 -1.03125 0.578125 -1.921875q0.59375 -0.90625 1.703125 -1.359375q1.125 -0.46875 2.5 -0.46875q1.515625 0 2.671875 0.484375q1.15625 0.484375 1.765625 1.4375q0.625 0.9375 0.671875 2.140625l-1.71875 0.125q-0.140625 -1.28125 -0.953125 -1.9375q-0.796875 -0.671875 -2.359375 -0.671875q-1.625 0 -2.375 0.609375q-0.75 0.59375 -0.75 1.4375q0 0.734375 0.53125 1.203125q0.515625 0.46875 2.703125 0.96875q2.203125 0.5 3.015625 0.875q1.1875 0.546875 1.75 1.390625q0.578125 0.828125 0.578125 1.921875q0 1.09375 -0.625 2.0625q-0.625 0.953125 -1.796875 1.484375q-1.15625 0.53125 -2.609375 0.53125q-1.84375 0 -3.09375 -0.53125q-1.25 -0.546875 -1.96875 -1.625q-0.703125 -1.078125 -0.734375 -2.453125zm21.146667 2.765625l0 1.609375l-8.984375 0q-0.015625 -0.609375 0.1875 -1.15625q0.34375 -0.921875 1.09375 -1.8125q0.765625 -0.890625 2.1875 -2.0625q2.21875 -1.8125 3.0 -2.875q0.78125 -1.0625 0.78125 -2.015625q0 -0.984375 -0.71875 -1.671875q-0.703125 -0.6875 -1.84375 -0.6875q-1.203125 0 -1.9375 0.734375q-0.71875 0.71875 -0.71875 2.0l-1.71875 -0.171875q0.171875 -1.921875 1.328125 -2.921875q1.15625 -1.015625 3.09375 -1.015625q1.953125 0 3.09375 1.09375q1.140625 1.078125 1.140625 2.6875q0 0.8125 -0.34375 1.609375q-0.328125 0.78125 -1.109375 1.65625q-0.765625 0.859375 -2.5625 2.390625q-1.5 1.265625 -1.9375 1.71875q-0.421875 0.4375 -0.703125 0.890625l6.671875 0z"
       fill-rule="nonzero"
       id="path79" />
    <path
       fill="#ffffff"
       d="m312.0 160.0l0 0c0 -4.418274 3.581726 -8.0 8.0 -8.0l0 0c2.1217346 0 4.156555 0.84284973 5.6568604 2.3431396c1.5002747 1.5002899 2.3431396 3.5351257 2.3431396 5.6568604l0 0c0 4.418274 -3.581726 8.0 -8.0 8.0l0 0c-4.418274 0 -8.0 -3.581726 -8.0 -8.0z"
       fill-rule="nonzero"
       id="path81" />
    <path
       stroke="#000000"
       stroke-width="2.0"
       stroke-linejoin="round"
       stroke-linecap="butt"
       d="m312.0 160.0l0 0c0 -4.418274 3.581726 -8.0 8.0 -8.0l0 0c2.1217346 0 4.156555 0.84284973 5.6568604 2.3431396c1.5002747 1.5002899 2.3431396 3.5351257 2.3431396 5.6568604l0 0c0 4.418274 -3.581726 8.0 -8.0 8.0l0 0c-4.418274 0 -8.0 -3.581726 -8.0 -8.0z"
       fill-rule="nonzero"
       id="path83" />
    <path
       fill="#000000"
       fill-opacity="0.0"
       d="m264.0 144.0l48.0 0l0 32.0l-48.0 0z"
       fill-rule="nonzero"
       id="path85" />
    <path
       fill="#000000"
       d="m281.0401 162.545l1.6875 -0.140625q0.125 1.015625 0.5625 1.671875q0.4375 0.65625 1.359375 1.0625q0.9375 0.40625 2.09375 0.40625q1.03125 0 1.8125 -0.3125q0.796875 -0.3125 1.1875 -0.84375q0.390625 -0.53125 0.390625 -1.15625q0 -0.640625 -0.375 -1.109375q-0.375 -0.484375 -1.234375 -0.8125q-0.546875 -0.21875 -2.421875 -0.65625q-1.875 -0.453125 -2.625 -0.859375q-0.96875 -0.515625 -1.453125 -1.265625q-0.46875 -0.75 -0.46875 -1.6875q0 -1.03125 0.578125 -1.921875q0.59375 -0.90625 1.703125 -1.359375q1.125 -0.46875 2.5 -0.46875q1.515625 0 2.671875 0.484375q1.15625 0.484375 1.765625 1.4375q0.625 0.9375 0.671875 2.140625l-1.71875 0.125q-0.140625 -1.28125 -0.953125 -1.9375q-0.796875 -0.671875 -2.359375 -0.671875q-1.625 0 -2.375 0.609375q-0.75 0.59375 -0.75 1.4375q0 0.734375 0.53125 1.203125q0.515625 0.46875 2.703125 0.96875q2.203125 0.5 3.015625 0.875q1.1875 0.546875 1.75 1.390625q0.578125 0.828125 0.578125 1.921875q0 1.09375 -0.625 2.0625q-0.625 0.953125 -1.796875 1.484375q-1.15625 0.53125 -2.609375 0.53125q-1.84375 0 -3.09375 -0.53125q-1.25 -0.546875 -1.96875 -1.625q-0.703125 -1.078125 -0.734375 -2.453125zm12.3810425 0.78125l1.671875 -0.21875q0.28125 1.421875 0.96875 2.046875q0.703125 0.625 1.6875 0.625q1.1875 0 2.0 -0.8125q0.8125 -0.828125 0.8125 -2.03125q0 -1.140625 -0.765625 -1.890625q-0.75 -0.75 -1.90625 -0.75q-0.46875 0 -1.171875 0.1875l0.1875 -1.46875q0.15625 0.015625 0.265625 0.015625q1.0625 0 1.90625 -0.546875q0.859375 -0.5625 0.859375 -1.71875q0 -0.921875 -0.625 -1.515625q-0.609375 -0.609375 -1.59375 -0.609375q-0.96875 0 -1.625 0.609375q-0.640625 0.609375 -0.828125 1.84375l-1.671875 -0.296875q0.296875 -1.6875 1.375 -2.609375q1.09375 -0.921875 2.71875 -0.921875q1.109375 0 2.046875 0.484375q0.9375 0.46875 1.421875 1.296875q0.5 0.828125 0.5 1.75q0 0.890625 -0.46875 1.609375q-0.46875 0.71875 -1.40625 1.15625q1.21875 0.265625 1.875 1.15625q0.671875 0.875 0.671875 2.1875q0 1.78125 -1.296875 3.015625q-1.296875 1.234375 -3.28125 1.234375q-1.796875 0 -2.984375 -1.0625q-1.171875 -1.0625 -1.34375 -2.765625z"
       fill-rule="nonzero"
       id="path87" />
    <path
       fill="#ffffff"
       d="m312.0 192.0l0 0c0 -4.418274 3.581726 -8.0 8.0 -8.0l0 0c2.1217346 0 4.156555 0.84284973 5.6568604 2.3431396c1.5002747 1.5002899 2.3431396 3.5351257 2.3431396 5.6568604l0 0c0 4.418274 -3.581726 8.0 -8.0 8.0l0 0c-4.418274 0 -8.0 -3.581726 -8.0 -8.0z"
       fill-rule="nonzero"
       id="path89" />
    <path
       stroke="#000000"
       stroke-width="2.0"
       stroke-linejoin="round"
       stroke-linecap="butt"
       d="m312.0 192.0l0 0c0 -4.418274 3.581726 -8.0 8.0 -8.0l0 0c2.1217346 0 4.156555 0.84284973 5.6568604 2.3431396c1.5002747 1.5002899 2.3431396 3.5351257 2.3431396 5.6568604l0 0c0 4.418274 -3.581726 8.0 -8.0 8.0l0 0c-4.418274 0 -8.0 -3.581726 -8.0 -8.0z"
       fill-rule="nonzero"
       id="path91" />
    <path
       fill="#000000"
       fill-opacity="0.0"
       d="m264.0 176.0l48.0 0l0 32.0l-48.0 0z"
       fill-rule="nonzero"
       id="path93" />
    <path
       fill="#000000"
       d="m281.0401 194.545l1.6875 -0.140625q0.125 1.015625 0.5625 1.671875q0.4375 0.65625 1.359375 1.0625q0.9375 0.40625 2.09375 0.40625q1.03125 0 1.8125 -0.3125q0.796875 -0.3125 1.1875 -0.84375q0.390625 -0.53125 0.390625 -1.15625q0 -0.640625 -0.375 -1.109375q-0.375 -0.484375 -1.234375 -0.8125q-0.546875 -0.21875 -2.421875 -0.65625q-1.875 -0.453125 -2.625 -0.859375q-0.96875 -0.515625 -1.453125 -1.265625q-0.46875 -0.75 -0.46875 -1.6875q0 -1.03125 0.578125 -1.921875q0.59375 -0.90625 1.703125 -1.359375q1.125 -0.46875 2.5 -0.46875q1.515625 0 2.671875 0.484375q1.15625 0.484375 1.765625 1.4375q0.625 0.9375 0.671875 2.140625l-1.71875 0.125q-0.140625 -1.28125 -0.953125 -1.9375q-0.796875 -0.671875 -2.359375 -0.671875q-1.625 0 -2.375 0.609375q-0.75 0.59375 -0.75 1.4375q0 0.734375 0.53125 1.203125q0.515625 0.46875 2.703125 0.96875q2.203125 0.5 3.015625 0.875q1.1875 0.546875 1.75 1.390625q0.578125 0.828125 0.578125 1.921875q0 1.09375 -0.625 2.0625q-0.625 0.953125 -1.796875 1.484375q-1.15625 0.53125 -2.609375 0.53125q-1.84375 0 -3.09375 -0.53125q-1.25 -0.546875 -1.96875 -1.625q-0.703125 -1.078125 -0.734375 -2.453125zm17.724792 4.375l0 -3.25l-5.90625 0l0 -1.53125l6.21875 -8.8125l1.359375 0l0 8.8125l1.84375 0l0 1.53125l-1.84375 0l0 3.25l-1.671875 0zm0 -4.78125l0 -6.140625l-4.25 6.140625l4.25 0z"
       fill-rule="nonzero"
       id="path95" />
    <path
       fill="#ffffff"
       d="m312.0 224.0l0 0c0 -4.418274 3.581726 -8.0 8.0 -8.0l0 0c2.1217346 0 4.156555 0.84284973 5.6568604 2.3431396c1.5002747 1.5002899 2.3431396 3.5351257 2.3431396 5.6568604l0 0c0 4.418274 -3.581726 8.0 -8.0 8.0l0 0c-4.418274 0 -8.0 -3.581726 -8.0 -8.0z"
       fill-rule="nonzero"
       id="path97" />
    <path
       stroke="#000000"
       stroke-width="2.0"
       stroke-linejoin="round"
       stroke-linecap="butt"
       d="m312.0 224.0l0 0c0 -4.418274 3.581726 -8.0 8.0 -8.0l0 0c2.1217346 0 4.156555 0.84284973 5.6568604 2.3431396c1.5002747 1.5002899 2.3431396 3.5351257 2.3431396 5.6568604l0 0c0 4.418274 -3.581726 8.0 -8.0 8.0l0 0c-4.418274 0 -8.0 -3.581726 -8.0 -8.0z"
       fill-rule="nonzero"
       id="path99" />
    <path
       fill="#000000"
       fill-opacity="0.0"
       d="m264.0 208.0l48.0 0l0 32.0l-48.0 0z"
       fill-rule="nonzero"
       id="path101" />
    <path
       fill="#000000"
       d="m281.0401 226.545l1.6875 -0.140625q0.125 1.015625 0.5625 1.671875q0.4375 0.65625 1.359375 1.0625q0.9375 0.40625 2.09375 0.40625q1.03125 0 1.8125 -0.3125q0.796875 -0.3125 1.1875 -0.84375q0.390625 -0.53125 0.390625 -1.15625q0 -0.640625 -0.375 -1.109375q-0.375 -0.484375 -1.234375 -0.8125q-0.546875 -0.21875 -2.421875 -0.65625q-1.875 -0.453125 -2.625 -0.859375q-0.96875 -0.515625 -1.453125 -1.265625q-0.46875 -0.75 -0.46875 -1.6875q0 -1.03125 0.578125 -1.921875q0.59375 -0.90625 1.703125 -1.359375q1.125 -0.46875 2.5 -0.46875q1.515625 0 2.671875 0.484375q1.15625 0.484375 1.765625 1.4375q0.625 0.9375 0.671875 2.140625l-1.71875 0.125q-0.140625 -1.28125 -0.953125 -1.9375q-0.796875 -0.671875 -2.359375 -0.671875q-1.625 0 -2.375 0.609375q-0.75 0.59375 -0.75 1.4375q0 0.734375 0.53125 1.203125q0.515625 0.46875 2.703125 0.96875q2.203125 0.5 3.015625 0.875q1.1875 0.546875 1.75 1.390625q0.578125 0.828125 0.578125 1.921875q0 1.09375 -0.625 2.0625q-0.625 0.953125 -1.796875 1.484375q-1.15625 0.53125 -2.609375 0.53125q-1.84375 0 -3.09375 -0.53125q-1.25 -0.546875 -1.96875 -1.625q-0.703125 -1.078125 -0.734375 -2.453125zm12.3654175 0.8125l1.765625 -0.15625q0.1875 1.28125 0.890625 1.9375q0.71875 0.640625 1.71875 0.640625q1.203125 0 2.03125 -0.90625q0.84375 -0.90625 0.84375 -2.421875q0 -1.421875 -0.8125 -2.25q-0.796875 -0.828125 -2.09375 -0.828125q-0.796875 0 -1.453125 0.375q-0.640625 0.359375 -1.015625 0.953125l-1.578125 -0.203125l1.328125 -7.0l6.765625 0l0 1.609375l-5.4375 0l-0.734375 3.640625q1.234375 -0.84375 2.578125 -0.84375q1.78125 0 3.0 1.234375q1.234375 1.234375 1.234375 3.171875q0 1.84375 -1.078125 3.1875q-1.3125 1.65625 -3.578125 1.65625q-1.859375 0 -3.03125 -1.03125q-1.171875 -1.046875 -1.34375 -2.765625z"
       fill-rule="nonzero"
       id="path103" />
    <path
       fill="#ffffff"
       d="m312.0 256.0l0 0c0 -4.418274 3.581726 -8.0 8.0 -8.0l0 0c2.1217346 0 4.156555 0.84284973 5.6568604 2.3431396c1.5002747 1.5002899 2.3431396 3.5351257 2.3431396 5.6568604l0 0c0 4.418274 -3.581726 8.0 -8.0 8.0l0 0c-4.418274 0 -8.0 -3.581726 -8.0 -8.0z"
       fill-rule="nonzero"
       id="path105" />
    <path
       stroke="#000000"
       stroke-width="2.0"
       stroke-linejoin="round"
       stroke-linecap="butt"
       d="m312.0 256.0l0 0c0 -4.418274 3.581726 -8.0 8.0 -8.0l0 0c2.1217346 0 4.156555 0.84284973 5.6568604 2.3431396c1.5002747 1.5002899 2.3431396 3.5351257 2.3431396 5.6568604l0 0c0 4.418274 -3.581726 8.0 -8.0 8.0l0 0c-4.418274 0 -8.0 -3.581726 -8.0 -8.0z"
       fill-rule="nonzero"
       id="path107" />
    <path
       fill="#000000"
       fill-opacity="0.0"
       d="m264.0 240.0l48.0 0l0 32.0l-48.0 0z"
       fill-rule="nonzero"
       id="path109" />
    <path
       fill="#000000"
       d="m281.0401 258.54498l1.6875 -0.140625q0.125 1.015625 0.5625 1.671875q0.4375 0.65625 1.359375 1.0625q0.9375 0.40625 2.09375 0.40625q1.03125 0 1.8125 -0.3125q0.796875 -0.3125 1.1875 -0.84375q0.390625 -0.53125 0.390625 -1.15625q0 -0.640625 -0.375 -1.109375q-0.375 -0.484375 -1.234375 -0.8125q-0.546875 -0.21875 -2.421875 -0.65625q-1.875 -0.453125 -2.625 -0.85935974q-0.96875 -0.515625 -1.453125 -1.265625q-0.46875 -0.75 -0.46875 -1.6875q0 -1.03125 0.578125 -1.921875q0.59375 -0.90625 1.703125 -1.359375q1.125 -0.46875 2.5 -0.46875q1.515625 0 2.671875 0.484375q1.15625 0.484375 1.765625 1.4375q0.625 0.9375 0.671875 2.140625l-1.71875 0.125q-0.140625 -1.28125 -0.953125 -1.9375q-0.796875 -0.671875 -2.359375 -0.671875q-1.625 0 -2.375 0.609375q-0.75 0.59375 -0.75 1.4375q0 0.734375 0.53125 1.203125q0.515625 0.46875 2.703125 0.96875q2.203125 0.5 3.015625 0.875q1.1875 0.54685974 1.75 1.3906097q0.578125 0.828125 0.578125 1.921875q0 1.09375 -0.625 2.0625q-0.625 0.953125 -1.796875 1.484375q-1.15625 0.53125 -2.609375 0.53125q-1.84375 0 -3.09375 -0.53125q-1.25 -0.546875 -1.96875 -1.625q-0.703125 -1.078125 -0.734375 -2.453125zm21.037292 -5.8906097l-1.65625 0.125q-0.21875 -0.984375 -0.640625 -1.421875q-0.671875 -0.71875 -1.65625 -0.71875q-0.8125 0 -1.40625 0.4375q-0.796875 0.578125 -1.25 1.6875q-0.453125 1.09375 -0.46875 3.140625q0.609375 -0.921875 1.46875 -1.359375q0.875 -0.453125 1.828125 -0.453125q1.671875 0 2.84375 1.234375q1.171875 1.2343597 1.171875 3.1718597q0 1.28125 -0.546875 2.390625q-0.546875 1.09375 -1.515625 1.6875q-0.96875 0.578125 -2.1875 0.578125q-2.09375 0 -3.40625 -1.53125q-1.3125 -1.546875 -1.3125 -5.0625q0 -3.9531097 1.453125 -5.7343597q1.265625 -1.5625 3.421875 -1.5625q1.609375 0 2.625 0.90625q1.03125 0.890625 1.234375 2.484375zm-6.8125 5.8593597q0 0.859375 0.359375 1.65625q0.375 0.78125 1.03125 1.203125q0.65625 0.40625 1.375 0.40625q1.0625 0 1.8125 -0.84375q0.765625 -0.859375 0.765625 -2.328125q0 -1.40625 -0.75 -2.21875q-0.75 -0.81248474 -1.890625 -0.81248474q-1.125 0 -1.921875 0.81248474q-0.78125 0.8125 -0.78125 2.125z"
       fill-rule="nonzero"
       id="path111" />
    <path
       fill="#ffffff"
       d="m312.0 288.0l0 0c0 -4.418274 3.581726 -8.0 8.0 -8.0l0 0c2.1217346 0 4.156555 0.842865 5.6568604 2.3431396c1.5002747 1.5003052 2.3431396 3.5351257 2.3431396 5.6568604l0 0c0 4.418274 -3.581726 8.0 -8.0 8.0l0 0c-4.418274 0 -8.0 -3.581726 -8.0 -8.0z"
       fill-rule="nonzero"
       id="path113" />
    <path
       stroke="#000000"
       stroke-width="2.0"
       stroke-linejoin="round"
       stroke-linecap="butt"
       d="m312.0 288.0l0 0c0 -4.418274 3.581726 -8.0 8.0 -8.0l0 0c2.1217346 0 4.156555 0.842865 5.6568604 2.3431396c1.5002747 1.5003052 2.3431396 3.5351257 2.3431396 5.6568604l0 0c0 4.418274 -3.581726 8.0 -8.0 8.0l0 0c-4.418274 0 -8.0 -3.581726 -8.0 -8.0z"
       fill-rule="nonzero"
       id="path115" />
    <path
       fill="#000000"
       fill-opacity="0.0"
       d="m264.0 272.0l48.0 0l0 32.0l-48.0 0z"
       fill-rule="nonzero"
       id="path117" />
    <path
       fill="#000000"
       d="m281.0401 290.54498l1.6875 -0.140625q0.125 1.015625 0.5625 1.671875q0.4375 0.65625 1.359375 1.0625q0.9375 0.40625 2.09375 0.40625q1.03125 0 1.8125 -0.3125q0.796875 -0.3125 1.1875 -0.84375q0.390625 -0.53125 0.390625 -1.15625q0 -0.640625 -0.375 -1.109375q-0.375 -0.484375 -1.234375 -0.8125q-0.546875 -0.21875 -2.421875 -0.65625q-1.875 -0.453125 -2.625 -0.859375q-0.96875 -0.515625 -1.453125 -1.265625q-0.46875 -0.75 -0.46875 -1.6875q0 -1.03125 0.578125 -1.921875q0.59375 -0.90625 1.703125 -1.359375q1.125 -0.46875 2.5 -0.46875q1.515625 0 2.671875 0.484375q1.15625 0.484375 1.765625 1.4375q0.625 0.9375 0.671875 2.140625l-1.71875 0.125q-0.140625 -1.28125 -0.953125 -1.9375q-0.796875 -0.671875 -2.359375 -0.671875q-1.625 0 -2.375 0.609375q-0.75 0.59375 -0.75 1.4375q0 0.734375 0.53125 1.203125q0.515625 0.46875 2.703125 0.96875q2.203125 0.5 3.015625 0.875q1.1875 0.546875 1.75 1.390625q0.578125 0.828125 0.578125 1.921875q0 1.09375 -0.625 2.0625q-0.625 0.953125 -1.796875 1.484375q-1.15625 0.53125 -2.609375 0.53125q-1.84375 0 -3.09375 -0.53125q-1.25 -0.546875 -1.96875 -1.625q-0.703125 -1.078125 -0.734375 -2.453125zm12.4904175 -7.4375l0 -1.609375l8.796875 0l0 1.296875q-1.296875 1.375 -2.578125 3.671875q-1.265625 2.296875 -1.96875 4.71875q-0.5 1.703125 -0.640625 3.734375l-1.71875 0q0.03125 -1.609375 0.625 -3.875q0.609375 -2.28125 1.734375 -4.390625q1.140625 -2.109375 2.40625 -3.546875l-6.65625 0z"
       fill-rule="nonzero"
       id="path119" />
    <path
       fill="#c9daf8"
       d="m104.0 48.0l128.0 0l0 256.0l-128.0 0z"
       fill-rule="nonzero"
       id="path121" />
    <path
       stroke="#000000"
       stroke-width="2.0"
       stroke-linejoin="round"
       stroke-linecap="butt"
       d="m104.0 48.0l128.0 0l0 256.0l-128.0 0z"
       fill-rule="nonzero"
       id="path123" />
    <path
       fill="#000000"
       d="m143.49884 171.92l0 -13.59375l2.71875 0l3.21875 9.625q0.4375 1.34375 0.640625 2.015625q0.234375 -0.75 0.734375 -2.1875l3.25 -9.453125l2.421875 0l0 13.59375l-1.734375 0l0 -11.390625l-3.953125 11.390625l-1.625 0l-3.9375 -11.578125l0 11.578125l-1.734375 0zm15.400177 -11.6875l0 -1.90625l1.671875 0l0 1.90625l-1.671875 0zm0 11.6875l0 -9.859375l1.671875 0l0 9.859375l-1.671875 0zm10.566696 -3.609375l1.640625 0.21875q-0.265625 1.6875 -1.375 2.65625q-1.109375 0.953125 -2.734375 0.953125q-2.015625 0 -3.25 -1.3125q-1.21875 -1.328125 -1.21875 -3.796875q0 -1.59375 0.515625 -2.78125q0.53125 -1.203125 1.609375 -1.796875q1.09375 -0.609375 2.359375 -0.609375q1.609375 0 2.625 0.8125q1.015625 0.8125 1.3125 2.3125l-1.625 0.25q-0.234375 -1.0 -0.828125 -1.5q-0.59375 -0.5 -1.421875 -0.5q-1.265625 0 -2.0625 0.90625q-0.78125 0.90625 -0.78125 2.859375q0 1.984375 0.765625 2.890625q0.765625 0.890625 1.984375 0.890625q0.984375 0 1.640625 -0.59375q0.65625 -0.609375 0.84375 -1.859375zm2.875 3.609375l0 -9.859375l1.5 0l0 1.5q0.578125 -1.046875 1.0625 -1.375q0.484375 -0.34375 1.078125 -0.34375q0.84375 0 1.71875 0.546875l-0.578125 1.546875q-0.609375 -0.359375 -1.234375 -0.359375q-0.546875 0 -0.984375 0.328125q-0.421875 0.328125 -0.609375 0.90625q-0.28125 0.890625 -0.28125 1.953125l0 5.15625l-1.671875 0zm5.603302 -4.921875q0 -2.734375 1.53125 -4.0625q1.265625 -1.09375 3.09375 -1.09375q2.03125 0 3.3125 1.34375q1.296875 1.328125 1.296875 3.671875q0 1.90625 -0.578125 3.0q-0.5625 1.078125 -1.65625 1.6875q-1.078125 0.59375 -2.375 0.59375q-2.0625 0 -3.34375 -1.328125q-1.28125 -1.328125 -1.28125 -3.8125zm1.71875 0q0 1.890625 0.828125 2.828125q0.828125 0.9375 2.078125 0.9375q1.25 0 2.0625 -0.9375q0.828125 -0.953125 0.828125 -2.890625q0 -1.828125 -0.828125 -2.765625q-0.828125 -0.9375 -2.0625 -0.9375q-1.25 0 -2.078125 0.9375q-0.828125 0.9375 -0.828125 2.828125zm8.641342 0.84375l0 -1.6875l5.125 0l0 1.6875l-5.125 0z"
       fill-rule="nonzero"
       id="path125" />
    <path
       fill="#000000"
       d="m134.2074 190.31062l1.640625 0.21875q-0.265625 1.6875 -1.375 2.65625q-1.109375 0.953125 -2.734375 0.953125q-2.015625 0 -3.25 -1.3125q-1.2187424 -1.328125 -1.2187424 -3.796875q0 -1.59375 0.515625 -2.78125q0.5312424 -1.203125 1.6093674 -1.796875q1.09375 -0.609375 2.359375 -0.609375q1.609375 0 2.625 0.8125q1.015625 0.8125 1.3125 2.3125l-1.625 0.25q-0.234375 -1.0 -0.828125 -1.5q-0.59375 -0.5 -1.421875 -0.5q-1.265625 0 -2.0625 0.90625q-0.78125 0.90625 -0.78125 2.859375q0 1.984375 0.765625 2.890625q0.765625 0.890625 1.984375 0.890625q0.984375 0 1.640625 -0.59375q0.65625 -0.609375 0.84375 -1.859375zm2.265625 -1.3125q0 -2.734375 1.53125 -4.0625q1.265625 -1.09375 3.09375 -1.09375q2.03125 0 3.3125 1.34375q1.296875 1.328125 1.296875 3.671875q0 1.90625 -0.578125 3.0q-0.5625 1.078125 -1.65625 1.6875q-1.078125 0.59375 -2.375 0.59375q-2.0625 0 -3.34375 -1.328125q-1.28125 -1.328125 -1.28125 -3.8125zm1.71875 0q0 1.890625 0.828125 2.828125q0.828125 0.9375 2.078125 0.9375q1.25 0 2.0625 -0.9375q0.828125 -0.953125 0.828125 -2.890625q0 -1.828125 -0.828125 -2.765625q-0.828125 -0.9375 -2.0625 -0.9375q-1.25 0 -2.078125 0.9375q-0.828125 0.9375 -0.828125 2.828125zm9.281982 4.921875l0 -9.859375l1.5 0l0 1.40625q1.09375 -1.625 3.140625 -1.625q0.890625 0 1.640625 0.328125q0.75 0.3125 1.109375 0.84375q0.375 0.515625 0.53125 1.21875q0.09375 0.46875 0.09375 1.625l0 6.0625l-1.671875 0l0 -6.0q0 -1.015625 -0.203125 -1.515625q-0.1875 -0.515625 -0.6875 -0.8125q-0.5 -0.296875 -1.171875 -0.296875q-1.0625 0 -1.84375 0.671875q-0.765625 0.671875 -0.765625 2.578125l0 5.375l-1.671875 0zm14.031952 -1.5l0.234375 1.484375q-0.703125 0.140625 -1.265625 0.140625q-0.90625 0 -1.40625 -0.28125q-0.5 -0.296875 -0.703125 -0.75q-0.203125 -0.46875 -0.203125 -1.984375l0 -5.65625l-1.234375 0l0 -1.3125l1.234375 0l0 -2.4375l1.65625 -1.0l0 3.4375l1.6875 0l0 1.3125l-1.6875 0l0 5.75q0 0.71875 0.078125 0.921875q0.09375 0.203125 0.296875 0.328125q0.203125 0.125 0.578125 0.125q0.265625 0 0.734375 -0.078125zm1.5114441 1.5l0 -9.859375l1.5 0l0 1.5q0.578125 -1.046875 1.0625 -1.375q0.484375 -0.34375 1.078125 -0.34375q0.84375 0 1.71875 0.546875l-0.578125 1.546875q-0.609375 -0.359375 -1.234375 -0.359375q-0.546875 0 -0.984375 0.328125q-0.421875 0.328125 -0.609375 0.90625q-0.28125 0.890625 -0.28125 1.953125l0 5.15625l-1.671875 0zm5.603302 -4.921875q0 -2.734375 1.53125 -4.0625q1.265625 -1.09375 3.09375 -1.09375q2.03125 0 3.3125 1.34375q1.296875 1.328125 1.296875 3.671875q0 1.90625 -0.578125 3.0q-0.5625 1.078125 -1.65625 1.6875q-1.078125 0.59375 -2.375 0.59375q-2.0625 0 -3.34375 -1.328125q-1.28125 -1.328125 -1.28125 -3.8125zm1.71875 0q0 1.890625 0.828125 2.828125q0.828125 0.9375 2.078125 0.9375q1.25 0 2.0625 -0.9375q0.828125 -0.953125 0.828125 -2.890625q0 -1.828125 -0.828125 -2.765625q-0.828125 -0.9375 -2.0625 -0.9375q-1.25 0 -2.078125 0.9375q-0.828125 0.9375 -0.828125 2.828125zm2.84375 -7.734375l-1.046875 1.578125l-1.90625 0l2.0 -2.59375l1.78125 0l2.09375 2.59375l-1.890625 0l-1.03125 -1.578125zm6.406952 12.65625l0 -13.59375l1.671875 0l0 13.59375l-1.671875 0zm10.926086 -3.171875l1.71875 0.21875q-0.40625 1.5 -1.515625 2.34375q-1.09375 0.828125 -2.8125 0.828125q-2.15625 0 -3.421875 -1.328125q-1.265625 -1.328125 -1.265625 -3.734375q0 -2.484375 1.265625 -3.859375q1.28125 -1.375 3.328125 -1.375q1.984375 0 3.234375 1.34375q1.25 1.34375 1.25 3.796875q0 0.140625 -0.015625 0.4375l-7.34375 0q0.09375 1.625 0.921875 2.484375q0.828125 0.859375 2.0625 0.859375q0.90625 0 1.546875 -0.46875q0.65625 -0.484375 1.046875 -1.546875zm-5.484375 -2.703125l5.5 0q-0.109375 -1.234375 -0.625 -1.859375q-0.796875 -0.96875 -2.078125 -0.96875q-1.140625 0 -1.9375 0.78125q-0.78125 0.765625 -0.859375 2.046875zm15.563202 5.875l0 -1.453125q-1.140625 1.671875 -3.125 1.671875q-0.859375 0 -1.625 -0.328125q-0.75 -0.34375 -1.125 -0.84375q-0.359375 -0.5 -0.515625 -1.234375q-0.09375 -0.5 -0.09375 -1.5625l0 -6.109375l1.671875 0l0 5.46875q0 1.3125 0.09375 1.765625q0.15625 0.65625 0.671875 1.03125q0.515625 0.375 1.265625 0.375q0.75 0 1.40625 -0.375q0.65625 -0.390625 0.921875 -1.046875q0.28125 -0.671875 0.28125 -1.9375l0 -5.28125l1.671875 0l0 9.859375l-1.5 0zm3.9069824 0l0 -9.859375l1.5 0l0 1.5q0.578125 -1.046875 1.0625 -1.375q0.484375 -0.34375 1.078125 -0.34375q0.84375 0 1.71875 0.546875l-0.578125 1.546875q-0.609375 -0.359375 -1.234375 -0.359375q-0.546875 0 -0.984375 0.328125q-0.421875 0.328125 -0.609375 0.90625q-0.28125 0.890625 -0.28125 1.953125l0 5.15625l-1.671875 0z"
       fill-rule="nonzero"
       id="path127" />
    <path
       fill="#ffffff"
       d="m72.0 168.0l16.0 0l0 -8.0l16.0 16.0l-16.0 16.0l0 -8.0l-16.0 0z"
       fill-rule="nonzero"
       id="path129" />
    <path
       stroke="#000000"
       stroke-width="2.0"
       stroke-linejoin="round"
       stroke-linecap="butt"
       d="m72.0 168.0l16.0 0l0 -8.0l16.0 16.0l-16.0 16.0l0 -8.0l-16.0 0z"
       fill-rule="nonzero"
       id="path131" />
    <path
       fill="#ffffff"
       d="m232.0 168.0l16.0 0l0 -8.0l16.0 16.0l-16.0 16.0l0 -8.0l-16.0 0z"
       fill-rule="nonzero"
       id="path133" />
    <path
       stroke="#000000"
       stroke-width="2.0"
       stroke-linejoin="round"
       stroke-linecap="butt"
       d="m232.0 168.0l16.0 0l0 -8.0l16.0 16.0l-16.0 16.0l0 -8.0l-16.0 0z"
       fill-rule="nonzero"
       id="path135" />
    <path
       fill="#000000"
       fill-opacity="0.0"
       d="m264.0 64.0l0 224.0"
       fill-rule="nonzero"
       id="path137" />
    <path
       stroke="#000000"
       stroke-width="2.0"
       stroke-linejoin="round"
       stroke-linecap="round"
       d="m264.0 64.0l0 224.0"
       fill-rule="nonzero"
       id="path139" />
    <path
       fill="#000000"
       fill-opacity="0.0"
       d="m264.0 64.0l8.0 0"
       fill-rule="nonzero"
       id="path141" />
    <path
       stroke="#000000"
       stroke-width="2.0"
       stroke-linejoin="round"
       stroke-linecap="round"
       d="m264.0 64.0l8.0 0"
       fill-rule="nonzero"
       id="path143" />
    <path
       fill="#000000"
       fill-opacity="0.0"
       d="m264.0 96.0l8.0 0"
       fill-rule="nonzero"
       id="path145" />
    <path
       stroke="#000000"
       stroke-width="2.0"
       stroke-linejoin="round"
       stroke-linecap="round"
       d="m264.0 96.0l8.0 0"
       fill-rule="nonzero"
       id="path147" />
    <path
       fill="#000000"
       fill-opacity="0.0"
       d="m264.0 128.0l8.0 0"
       fill-rule="nonzero"
       id="path149" />
    <path
       stroke="#000000"
       stroke-width="2.0"
       stroke-linejoin="round"
       stroke-linecap="round"
       d="m264.0 128.0l8.0 0"
       fill-rule="nonzero"
       id="path151" />
    <path
       fill="#000000"
       fill-opacity="0.0"
       d="m264.0 160.0l8.0 0"
       fill-rule="nonzero"
       id="path153" />
    <path
       stroke="#000000"
       stroke-width="2.0"
       stroke-linejoin="round"
       stroke-linecap="round"
       d="m264.0 160.0l8.0 0"
       fill-rule="nonzero"
       id="path155" />
    <path
       fill="#000000"
       fill-opacity="0.0"
       d="m264.0 192.0l8.0 0"
       fill-rule="nonzero"
       id="path157" />
    <path
       stroke="#000000"
       stroke-width="2.0"
       stroke-linejoin="round"
       stroke-linecap="round"
       d="m264.0 192.0l8.0 0"
       fill-rule="nonzero"
       id="path159" />
    <path
       fill="#000000"
       fill-opacity="0.0"
       d="m264.0 224.0l8.0 0"
       fill-rule="nonzero"
       id="path161" />
    <path
       stroke="#000000"
       stroke-width="2.0"
       stroke-linejoin="round"
       stroke-linecap="round"
       d="m264.0 224.0l8.0 0"
       fill-rule="nonzero"
       id="path163" />
    <path
       fill="#000000"
       fill-opacity="0.0"
       d="m264.0 256.0l8.0 0"
       fill-rule="nonzero"
       id="path165" />
    <path
       stroke="#000000"
       stroke-width="2.0"
       stroke-linejoin="round"
       stroke-linecap="round"
       d="m264.0 256.0l8.0 0"
       fill-rule="nonzero"
       id="path167" />
    <path
       fill="#000000"
       fill-opacity="0.0"
       d="m264.0 288.0l8.0 0"
       fill-rule="nonzero"
       id="path169" />
    <path
       stroke="#000000"
       stroke-width="2.0"
       stroke-linejoin="round"
       stroke-linecap="round"
       d="m264.0 288.0l8.0 0"
       fill-rule="nonzero"
       id="path171" />
    <path
       fill="#000000"
       fill-opacity="0.0"
       d="m72.0 64.0l0 224.0"
       fill-rule="nonzero"
       id="path173" />
    <path
       stroke="#000000"
       stroke-width="2.0"
       stroke-linejoin="round"
       stroke-linecap="round"
       d="m72.0 64.0l0 224.0"
       fill-rule="nonzero"
       id="path175" />
    <path
       fill="#000000"
       fill-opacity="0.0"
       d="m72.0 64.0l-8.0 0"
       fill-rule="nonzero"
       id="path177" />
    <path
       stroke="#000000"
       stroke-width="2.0"
       stroke-linejoin="round"
       stroke-linecap="round"
       d="m72.0 64.0l-8.0 0"
       fill-rule="nonzero"
       id="path179" />
    <path
       fill="#000000"
       fill-opacity="0.0"
       d="m72.0 96.0l-8.0 0"
       fill-rule="nonzero"
       id="path181" />
    <path
       stroke="#000000"
       stroke-width="2.0"
       stroke-linejoin="round"
       stroke-linecap="round"
       d="m72.0 96.0l-8.0 0"
       fill-rule="nonzero"
       id="path183" />
    <path
       fill="#000000"
       fill-opacity="0.0"
       d="m72.0 128.0l-8.0 0"
       fill-rule="nonzero"
       id="path185" />
    <path
       stroke="#000000"
       stroke-width="2.0"
       stroke-linejoin="round"
       stroke-linecap="round"
       d="m72.0 128.0l-8.0 0"
       fill-rule="nonzero"
       id="path187" />
    <path
       fill="#000000"
       fill-opacity="0.0"
       d="m72.0 160.0l-8.0 0"
       fill-rule="nonzero"
       id="path189" />
    <path
       stroke="#000000"
       stroke-width="2.0"
       stroke-linejoin="round"
       stroke-linecap="round"
       d="m72.0 160.0l-8.0 0"
       fill-rule="nonzero"
       id="path191" />
    <path
       fill="#000000"
       fill-opacity="0.0"
       d="m72.0 192.0l-8.0 0"
       fill-rule="nonzero"
       id="path193" />
    <path
       stroke="#000000"
       stroke-width="2.0"
       stroke-linejoin="round"
       stroke-linecap="round"
       d="m72.0 192.0l-8.0 0"
       fill-rule="nonzero"
       id="path195" />
    <path
       fill="#000000"
       fill-opacity="0.0"
       d="m72.0 224.0l-8.0 0"
       fill-rule="nonzero"
       id="path197" />
    <path
       stroke="#000000"
       stroke-width="2.0"
       stroke-linejoin="round"
       stroke-linecap="round"
       d="m72.0 224.0l-8.0 0"
       fill-rule="nonzero"
       id="path199" />
    <path
       fill="#000000"
       fill-opacity="0.0"
       d="m72.0 256.0l-8.0 0"
       fill-rule="nonzero"
       id="path201" />
    <path
       stroke="#000000"
       stroke-width="2.0"
       stroke-linejoin="round"
       stroke-linecap="round"
       d="m72.0 256.0l-8.0 0"
       fill-rule="nonzero"
       id="path203" />
    <path
       fill="#000000"
       fill-opacity="0.0"
       d="m72.0 288.0l-8.0 0"
       fill-rule="nonzero"
       id="path205" />
    <path
       stroke="#000000"
       stroke-width="2.0"
       stroke-linejoin="round"
       stroke-linecap="round"
       d="m72.0 288.0l-8.0 0"
       fill-rule="nonzero"
       id="path207" />
    <path
       fill="#000000"
       fill-opacity="0.0"
       d="m232.0 16.0l88.0 0l0 32.0l-88.0 0z"
       fill-rule="nonzero"
       id="path209" />
    <path
       fill="#000000"
       d="m253.79544 34.545l1.6875 -0.140625q0.125 1.015625 0.5625 1.671875q0.4375 0.65625 1.359375 1.0625q0.9375 0.40625 2.09375 0.40625q1.03125 0 1.8125 -0.3125q0.796875 -0.3125 1.1875 -0.84375q0.390625 -0.53125 0.390625 -1.15625q0 -0.640625 -0.375 -1.109375q-0.375 -0.484375 -1.234375 -0.8125q-0.546875 -0.21875 -2.421875 -0.65625q-1.875 -0.453125 -2.625 -0.859375q-0.96875 -0.515625 -1.453125 -1.265625q-0.46875 -0.75 -0.46875 -1.6875q0 -1.03125 0.578125 -1.921875q0.59375 -0.90625 1.703125 -1.359375q1.125 -0.46875 2.5 -0.46875q1.515625 0 2.671875 0.484375q1.15625 0.484375 1.765625 1.4375q0.625 0.9375 0.671875 2.140625l-1.71875 0.125q-0.140625 -1.28125 -0.953125 -1.9375q-0.796875 -0.671875 -2.359375 -0.671875q-1.625 0 -2.375 0.609375q-0.75 0.59375 -0.75 1.4375q0 0.734375 0.53125 1.203125q0.515625 0.46875 2.703125 0.96875q2.203125 0.5 3.015625 0.875q1.1875 0.546875 1.75 1.390625q0.578125 0.828125 0.578125 1.921875q0 1.09375 -0.625 2.0625q-0.625 0.953125 -1.796875 1.484375q-1.15625 0.53125 -2.609375 0.53125q-1.84375 0 -3.09375 -0.53125q-1.25 -0.546875 -1.96875 -1.625q-0.703125 -1.078125 -0.734375 -2.453125zm12.209198 -0.546875q0 -2.734375 1.53125 -4.0625q1.265625 -1.09375 3.09375 -1.09375q2.03125 0 3.3125 1.34375q1.296875 1.328125 1.296875 3.671875q0 1.90625 -0.578125 3.0q-0.5625 1.078125 -1.65625 1.6875q-1.078125 0.59375 -2.375 0.59375q-2.0625 0 -3.34375 -1.328125q-1.28125 -1.328125 -1.28125 -3.8125zm1.71875 0q0 1.890625 0.828125 2.828125q0.828125 0.9375 2.078125 0.9375q1.25 0 2.0625 -0.9375q0.828125 -0.953125 0.828125 -2.890625q0 -1.828125 -0.828125 -2.765625q-0.828125 -0.9375 -2.0625 -0.9375q-1.25 0 -2.078125 0.9375q-0.828125 0.9375 -0.828125 2.828125zm9.266357 4.921875l0 -9.859375l1.5 0l0 1.5q0.578125 -1.046875 1.0625 -1.375q0.484375 -0.34375 1.078125 -0.34375q0.84375 0 1.71875 0.546875l-0.578125 1.546875q-0.609375 -0.359375 -1.234375 -0.359375q-0.546875 0 -0.984375 0.328125q-0.421875 0.328125 -0.609375 0.90625q-0.28125 0.890625 -0.28125 1.953125l0 5.15625l-1.671875 0zm9.8845215 -1.5l0.234375 1.484375q-0.703125 0.140625 -1.265625 0.140625q-0.90625 0 -1.40625 -0.28125q-0.5 -0.296875 -0.703125 -0.75q-0.203125 -0.46875 -0.203125 -1.984375l0 -5.65625l-1.234375 0l0 -1.3125l1.234375 0l0 -2.4375l1.65625 -1.0l0 3.4375l1.6875 0l0 1.3125l-1.6875 0l0 5.75q0 0.71875 0.078125 0.921875q0.09375 0.203125 0.296875 0.328125q0.203125 0.125 0.578125 0.125q0.265625 0 0.734375 -0.078125zm1.5426941 -10.1875l0 -1.90625l1.671875 0l0 1.90625l-1.671875 0zm0 11.6875l0 -9.859375l1.671875 0l0 9.859375l-1.671875 0zm10.879181 -3.171875l1.71875 0.21875q-0.40625 1.5 -1.515625 2.34375q-1.09375 0.828125 -2.8125 0.828125q-2.15625 0 -3.421875 -1.328125q-1.265625 -1.328125 -1.265625 -3.734375q0 -2.484375 1.265625 -3.859375q1.28125 -1.375 3.328125 -1.375q1.984375 0 3.234375 1.34375q1.25 1.34375 1.25 3.796875q0 0.140625 -0.015625 0.4375l-7.34375 0q0.09375 1.625 0.921875 2.484375q0.828125 0.859375 2.0625 0.859375q0.90625 0 1.546875 -0.46875q0.65625 -0.484375 1.046875 -1.546875zm-5.484375 -2.703125l5.5 0q-0.109375 -1.234375 -0.625 -1.859375q-0.796875 -0.96875 -2.078125 -0.96875q-1.140625 0 -1.9375 0.78125q-0.78125 0.765625 -0.859375 2.046875zm8.438232 2.9375l1.65625 -0.265625q0.140625 1.0 0.765625 1.53125q0.640625 0.515625 1.78125 0.515625q1.15625 0 1.703125 -0.46875q0.5625 -0.46875 0.5625 -1.09375q0 -0.5625 -0.484375 -0.890625q-0.34375 -0.21875 -1.703125 -0.5625q-1.84375 -0.46875 -2.5625 -0.796875q-0.703125 -0.34375 -1.078125 -0.9375q-0.359375 -0.609375 -0.359375 -1.328125q0 -0.65625 0.296875 -1.21875q0.3125 -0.5625 0.828125 -0.9375q0.390625 -0.28125 1.0625 -0.484375q0.671875 -0.203125 1.4375 -0.203125q1.171875 0 2.046875 0.34375q0.875 0.328125 1.28125 0.90625q0.421875 0.5625 0.578125 1.515625l-1.625 0.21875q-0.109375 -0.75 -0.65625 -1.171875q-0.53125 -0.4375 -1.5 -0.4375q-1.15625 0 -1.640625 0.390625q-0.484375 0.375 -0.484375 0.875q0 0.328125 0.203125 0.59375q0.203125 0.265625 0.640625 0.4375q0.25 0.09375 1.46875 0.4375q1.765625 0.46875 2.46875 0.765625q0.703125 0.296875 1.09375 0.875q0.40625 0.578125 0.40625 1.4375q0 0.828125 -0.484375 1.578125q-0.484375 0.734375 -1.40625 1.140625q-0.921875 0.390625 -2.078125 0.390625q-1.921875 0 -2.9375 -0.796875q-1.0 -0.796875 -1.28125 -2.359375z"
       fill-rule="nonzero"
       id="path211" />
    <path
       fill="#000000"
       fill-opacity="0.0"
       d="m24.0 80.0l48.0 0l0 32.0l-48.0 0z"
       fill-rule="nonzero"
       id="path213" />
    <path
       fill="#000000"
       d="m34.5 102.92l0 -13.59375l9.84375 0l0 1.59375l-8.046875 0l0 4.171875l7.53125 0l0 1.59375l-7.53125 0l0 4.625l8.359375 0l0 1.609375l-10.15625 0zm18.021698 0l-1.671875 0l0 -10.640625q-0.59375 0.578125 -1.578125 1.15625q-0.984375 0.5625 -1.765625 0.859375l0 -1.625q1.40625 -0.65625 2.453125 -1.59375q1.046875 -0.9375 1.484375 -1.8125l1.078125 0l0 13.65625z"
       fill-rule="nonzero"
       id="path215" />
    <path
       fill="#000000"
       fill-opacity="0.0"
       d="m24.0 112.0l48.0 0l0 32.0l-48.0 0z"
       fill-rule="nonzero"
       id="path217" />
    <path
       fill="#000000"
       d="m34.5 134.92l0 -13.59375l9.84375 0l0 1.59375l-8.046875 0l0 4.171875l7.53125 0l0 1.59375l-7.53125 0l0 4.625l8.359375 0l0 1.609375l-10.15625 0zm20.506073 -1.609375l0 1.609375l-8.984375 0q-0.015625 -0.609375 0.1875 -1.15625q0.34375 -0.921875 1.09375 -1.8125q0.765625 -0.890625 2.1875 -2.0625q2.21875 -1.8125 3.0 -2.875q0.78125 -1.0625 0.78125 -2.015625q0 -0.984375 -0.71875 -1.671875q-0.703125 -0.6875 -1.84375 -0.6875q-1.203125 0 -1.9375 0.734375q-0.71875 0.71875 -0.71875 2.0l-1.71875 -0.171875q0.171875 -1.921875 1.328125 -2.921875q1.15625 -1.015625 3.09375 -1.015625q1.953125 0 3.09375 1.09375q1.140625 1.078125 1.140625 2.6875q0 0.8125 -0.34375 1.609375q-0.328125 0.78125 -1.109375 1.65625q-0.765625 0.859375 -2.5625 2.390625q-1.5 1.265625 -1.9375 1.71875q-0.421875 0.4375 -0.703125 0.890625l6.671875 0z"
       fill-rule="nonzero"
       id="path219" />
    <path
       fill="#000000"
       fill-opacity="0.0"
       d="m24.0 144.0l48.0 0l0 32.0l-48.0 0z"
       fill-rule="nonzero"
       id="path221" />
    <path
       fill="#000000"
       d="m34.5 166.92l0 -13.59375l9.84375 0l0 1.59375l-8.046875 0l0 4.171875l7.53125 0l0 1.59375l-7.53125 0l0 4.625l8.359375 0l0 1.609375l-10.15625 0zm11.740448 -3.59375l1.671875 -0.21875q0.28125 1.421875 0.96875 2.046875q0.703125 0.625 1.6875 0.625q1.1875 0 2.0 -0.8125q0.8125 -0.828125 0.8125 -2.03125q0 -1.140625 -0.765625 -1.890625q-0.75 -0.75 -1.90625 -0.75q-0.46875 0 -1.171875 0.1875l0.1875 -1.46875q0.15625 0.015625 0.265625 0.015625q1.0625 0 1.90625 -0.546875q0.859375 -0.5625 0.859375 -1.71875q0 -0.921875 -0.625 -1.515625q-0.609375 -0.609375 -1.59375 -0.609375q-0.96875 0 -1.625 0.609375q-0.640625 0.609375 -0.828125 1.84375l-1.671875 -0.296875q0.296875 -1.6875 1.375 -2.609375q1.09375 -0.921875 2.71875 -0.921875q1.109375 0 2.046875 0.484375q0.9375 0.46875 1.421875 1.296875q0.5 0.828125 0.5 1.75q0 0.890625 -0.46875 1.609375q-0.46875 0.71875 -1.40625 1.15625q1.21875 0.265625 1.875 1.15625q0.671875 0.875 0.671875 2.1875q0 1.78125 -1.296875 3.015625q-1.296875 1.234375 -3.28125 1.234375q-1.796875 0 -2.984375 -1.0625q-1.171875 -1.0625 -1.34375 -2.765625z"
       fill-rule="nonzero"
       id="path223" />
    <path
       fill="#000000"
       fill-opacity="0.0"
       d="m24.0 176.0l48.0 0l0 32.0l-48.0 0z"
       fill-rule="nonzero"
       id="path225" />
    <path
       fill="#000000"
       d="m34.5 198.92l0 -13.59375l9.84375 0l0 1.59375l-8.046875 0l0 4.171875l7.53125 0l0 1.59375l-7.53125 0l0 4.625l8.359375 0l0 1.609375l-10.15625 0zm17.084198 0l0 -3.25l-5.90625 0l0 -1.53125l6.21875 -8.8125l1.359375 0l0 8.8125l1.84375 0l0 1.53125l-1.84375 0l0 3.25l-1.671875 0zm0 -4.78125l0 -6.140625l-4.25 6.140625l4.25 0z"
       fill-rule="nonzero"
       id="path227" />
    <path
       fill="#000000"
       fill-opacity="0.0"
       d="m24.0 240.0l48.0 0l0 32.0l-48.0 0z"
       fill-rule="nonzero"
       id="path229" />
    <path
       fill="#000000"
       d="m34.5 262.91998l0 -13.593735l9.84375 0l0 1.59375l-8.046875 0l0 4.171875l7.53125 0l0 1.5937347l-7.53125 0l0 4.625l8.359375 0l0 1.609375l-10.15625 0zm20.396698 -10.26561l-1.65625 0.125q-0.21875 -0.984375 -0.640625 -1.421875q-0.671875 -0.71875 -1.65625 -0.71875q-0.8125 0 -1.40625 0.4375q-0.796875 0.578125 -1.25 1.6875q-0.453125 1.09375 -0.46875 3.140625q0.609375 -0.921875 1.46875 -1.359375q0.875 -0.453125 1.828125 -0.453125q1.671875 0 2.84375 1.234375q1.171875 1.2343597 1.171875 3.1718597q0 1.28125 -0.546875 2.390625q-0.546875 1.09375 -1.515625 1.6875q-0.96875 0.578125 -2.1875 0.578125q-2.09375 0 -3.40625 -1.53125q-1.3125 -1.546875 -1.3125 -5.0625q0 -3.9531097 1.453125 -5.7343597q1.265625 -1.5625 3.421875 -1.5625q1.609375 0 2.625 0.90625q1.03125 0.890625 1.234375 2.484375zm-6.8125 5.8593597q0 0.859375 0.359375 1.65625q0.375 0.78125 1.03125 1.203125q0.65625 0.40625 1.375 0.40625q1.0625 0 1.8125 -0.84375q0.765625 -0.859375 0.765625 -2.328125q0 -1.40625 -0.75 -2.21875q-0.75 -0.81248474 -1.890625 -0.81248474q-1.125 0 -1.921875 0.81248474q-0.78125 0.8125 -0.78125 2.125z"
       fill-rule="nonzero"
       id="path231" />
    <path
       fill="#000000"
       fill-opacity="0.0"
       d="m24.0 272.0l48.0 0l0 32.0l-48.0 0z"
       fill-rule="nonzero"
       id="path233" />
    <path
       fill="#000000"
       d="m34.5 294.91998l0 -13.59375l9.84375 0l0 1.59375l-8.046875 0l0 4.171875l7.53125 0l0 1.59375l-7.53125 0l0 4.625l8.359375 0l0 1.609375l-10.15625 0zm11.849823 -11.8125l0 -1.609375l8.796875 0l0 1.296875q-1.296875 1.375 -2.578125 3.671875q-1.265625 2.296875 -1.96875 4.71875q-0.5 1.703125 -0.640625 3.734375l-1.71875 0q0.03125 -1.609375 0.625 -3.875q0.609375 -2.28125 1.734375 -4.390625q1.140625 -2.109375 2.40625 -3.546875l-6.65625 0z"
       fill-rule="nonzero"
       id="path235" />
    <path
       fill="#000000"
       fill-opacity="0.0"
       d="m24.0 208.0l48.0 0l0 32.0l-48.0 0z"
       fill-rule="nonzero"
       id="path237" />
    <path
       fill="#000000"
       d="m34.5 230.92l0 -13.59375l9.84375 0l0 1.59375l-8.046875 0l0 4.171875l7.53125 0l0 1.59375l-7.53125 0l0 4.625l8.359375 0l0 1.609375l-10.15625 0zm11.724823 -3.5625l1.765625 -0.15625q0.1875 1.28125 0.890625 1.9375q0.71875 0.640625 1.71875 0.640625q1.203125 0 2.03125 -0.90625q0.84375 -0.90625 0.84375 -2.421875q0 -1.421875 -0.8125 -2.25q-0.796875 -0.828125 -2.09375 -0.828125q-0.796875 0 -1.453125 0.375q-0.640625 0.359375 -1.015625 0.953125l-1.578125 -0.203125l1.328125 -7.0l6.765625 0l0 1.609375l-5.4375 0l-0.734375 3.640625q1.234375 -0.84375 2.578125 -0.84375q1.78125 0 3.0 1.234375q1.234375 1.234375 1.234375 3.171875q0 1.84375 -1.078125 3.1875q-1.3125 1.65625 -3.578125 1.65625q-1.859375 0 -3.03125 -1.03125q-1.171875 -1.046875 -1.34375 -2.765625z"
       fill-rule="nonzero"
       id="path239" />
    <path
       fill="#ffffff"
       d="m144.0 16.0l0 0c0 -4.4182777 3.581726 -8.0 8.0 -8.0l0 0c2.1217346 0 4.1565704 0.8428545 5.6568604 2.3431454c1.5002899 1.5002918 2.3431396 3.5351229 2.3431396 5.6568546l0 0c0 4.4182777 -3.581726 8.0 -8.0 8.0l0 0c-4.418274 0 -8.0 -3.5817223 -8.0 -8.0z"
       fill-rule="nonzero"
       id="path241" />
    <path
       stroke="#000000"
       stroke-width="2.0"
       stroke-linejoin="round"
       stroke-linecap="butt"
       d="m144.0 16.0l0 0c0 -4.4182777 3.581726 -8.0 8.0 -8.0l0 0c2.1217346 0 4.1565704 0.8428545 5.6568604 2.3431454c1.5002899 1.5002918 2.3431396 3.5351229 2.3431396 5.6568546l0 0c0 4.4182777 -3.581726 8.0 -8.0 8.0l0 0c-4.418274 0 -8.0 -3.5817223 -8.0 -8.0z"
       fill-rule="nonzero"
       id="path243" />
    <path
       fill="#ffffff"
       d="m176.0 16.0l0 0c0 -4.4182777 3.581726 -8.0 8.0 -8.0l0 0c2.1217346 0 4.1565704 0.8428545 5.6568604 2.3431454c1.5002899 1.5002918 2.3431396 3.5351229 2.3431396 5.6568546l0 0c0 4.4182777 -3.581726 8.0 -8.0 8.0l0 0c-4.418274 0 -8.0 -3.5817223 -8.0 -8.0z"
       fill-rule="nonzero"
       id="path245" />
    <path
       stroke="#000000"
       stroke-width="2.0"
       stroke-linejoin="round"
       stroke-linecap="butt"
       d="m176.0 16.0l0 0c0 -4.4182777 3.581726 -8.0 8.0 -8.0l0 0c2.1217346 0 4.1565704 0.8428545 5.6568604 2.3431454c1.5002899 1.5002918 2.3431396 3.5351229 2.3431396 5.6568546l0 0c0 4.4182777 -3.581726 8.0 -8.0 8.0l0 0c-4.418274 0 -8.0 -3.5817223 -8.0 -8.0z"
       fill-rule="nonzero"
       id="path247" />
    <path
       fill="#000000"
       fill-opacity="0.0"
       d="m104.0 16.0l128.0 0l0 32.0l-128.0 0z"
       fill-rule="nonzero"
       id="path249" />
    <path
       fill="#000000"
       d="m147.09729 38.841873l0 -1.6875l5.125 0l0 1.6875l-5.125 0zm36.28546 1.875l0 -3.71875l-3.703125 0l0 -1.5625l3.703125 0l0 -3.703125l1.578125 0l0 3.703125l3.6875 0l0 1.5625l-3.6875 0l0 3.71875l-1.578125 0z"
       fill-rule="nonzero"
       id="path251" />
  </g>
</svg>
