<svg xmlns="http://www.w3.org/2000/svg" viewBox="0 0 160 160">
  <g style="fill:#fff" transform="scale(1)">
    <!-- <rect rx="20" ry="20" width="160" height="160" /> -->
    <g style="stroke-width:8;stroke:#fff;fill:#fff;fill-opacity:0.5">
      <path d="m
	       42.03,72.96
	       0.0,16.4
	       -11.0,8.1
	       -1.3,4.9
	       10.8,18.7
	       4.9,1.3
	       12.5,-5.5
	       14.2,8.2
	       1.5,13.6
	       3.6,3.6
	       21.6,0.0
	       3.6,-3.6
	       1.5,-13.7
	       14.2,-8.2
	       12.6,5.5
	       4.9,-1.3
	       10.8,-18.7
	       -1.3,-4.9
	       -11.0,-8.1
	       0.0,-16.4
	       11.0,-8.1
	       1.3,-4.9
	       -10.8,-18.7
	       -4.9,-1.3
	       -12.6,5.5
	       -14.2,-8.2
	       -1.5,-13.7
	       -3.6,-3.6
	       -21.6,0.0
	       -3.6,3.6
	       -1.5,13.6
	       -14.2,8.2
	       -12.5,-5.5
	       -4.9,1.3
	       -10.8,18.7
	       1.3,4.9
	       z" />
    </g>
    <!-- <circle cx="80" cy="80" r="27" /> -->
  </g>
</svg>
