<svg xmlns="http://www.w3.org/2000/svg" viewBox="0 0 220 180">
  <!-- <rect x="0" y="0" width="220" height="180" style="fill:#fff"/> -->
  <!-- <g stroke-linecap="round" stroke-linejoin="round" stroke="#ddd" -->
  <!--    stroke-width="2" transform="translate(10 10)" > -->
  <!--   <line x1="0" x2="200" y1="0" y2="0" /> -->
  <!--   <line x1="0" x2="200" y1="40" y2="40" /> -->
  <!--   <line x1="0" x2="200" y1="80" y2="80" /> -->
  <!--   <line x1="0" x2="200" y1="120" y2="120" /> -->
  <!--   <line x1="0" x2="200" y1="160" y2="160" /> -->
  <!--   <line x1="0" x2="0" y1="0" y2="160" /> -->
  <!--   <line x1="40" x2="40" y1="0" y2="160" /> -->
  <!--   <line x1="80" x2="80" y1="0" y2="160" /> -->
  <!--   <line x1="120" x2="120" y1="0" y2="160" /> -->
  <!--   <line x1="160" x2="160" y1="0" y2="160" /> -->
  <!--   <line x1="200" x2="200" y1="0" y2="160" /> -->
  <!-- </g> -->
  <g transform="translate(10 10)" >
    <rect x="20" y="20" width="160" height="20" stroke-width="0" fill="#00c" />
    <rect x="20" y="40" width="160" height="100" stroke-width="0" fill="#fff" />
    <rect x="20" y="20" width="160" height="120" stroke-width="5" stroke="#444"
	  stroke-linejoin="round" fill="none"  />
  </g>
</svg>
